<?xml version="1.0" encoding="UTF-8" standalone="no"?>
<svg
   xmlns:dc="http://purl.org/dc/elements/1.1/"
   xmlns:cc="http://creativecommons.org/ns#"
   xmlns:rdf="http://www.w3.org/1999/02/22-rdf-syntax-ns#"
   xmlns:svg="http://www.w3.org/2000/svg"
   xmlns="http://www.w3.org/2000/svg"
   xmlns:sodipodi="http://sodipodi.sourceforge.net/DTD/sodipodi-0.dtd"
   xmlns:inkscape="http://www.inkscape.org/namespaces/inkscape"
   viewBox="0 0 2761.6208 657.3175"
   height="657.3175"
   width="2761.6208"
   id="svg2"
   version="1.1"
   sodipodi:docname="banner_v2.svg"
   inkscape:version="0.92.3 (2405546, 2018-03-11)"
   inkscape:export-filename="/DATA/Users/PROYECTOS/IS-ENES3/CF-Workshop/banner_v2.png"
   inkscape:export-xdpi="27.110001"
   inkscape:export-ydpi="27.110001">
  <sodipodi:namedview
     pagecolor="#ffffff"
     bordercolor="#666666"
     borderopacity="1"
     objecttolerance="10"
     gridtolerance="10"
     guidetolerance="10"
     inkscape:pageopacity="1"
     inkscape:pageshadow="2"
     inkscape:window-width="3773"
     inkscape:window-height="2105"
     id="namedview7"
     showgrid="false"
     fit-margin-top="0"
     fit-margin-left="0"
     fit-margin-right="0"
     fit-margin-bottom="0"
     inkscape:zoom="0.48268755"
     inkscape:cx="851.16112"
     inkscape:cy="328.65875"
     inkscape:window-x="67"
     inkscape:window-y="27"
     inkscape:window-maximized="1"
     inkscape:current-layer="svg2"
     borderlayer="true" />
  <metadata
     id="metadata8">
    <rdf:RDF>
      <cc:Work
         rdf:about="">
        <dc:format>image/svg+xml</dc:format>
        <dc:type
           rdf:resource="http://purl.org/dc/dcmitype/StillImage" />
        <dc:title></dc:title>
      </cc:Work>
    </rdf:RDF>
  </metadata>
  <defs
     id="defs6" />
  <rect
     style="fill:#222222;fill-opacity:1;stroke:none;stroke-width:2;stroke-linecap:round;stroke-linejoin:round"
     id="rect53"
     width="2784.4099"
     height="683.67206"
     x="-8.2869339"
     y="-7.7089705" />
  <g
     id="g17"
     transform="translate(26.217096,28.65875)">
    <ellipse
       style="fill:#ffffff;fill-opacity:1;stroke:none;stroke-width:2;stroke-linecap:round;stroke-linejoin:round"
       id="path19"
       cx="299.77133"
       cy="298.88037"
       rx="297.9736"
       ry="297.52417" />
    <path
       id="path14"
       d="M 273.74015,599.09272 C 232.73499,595.25115 189.86608,582.09439 155.49182,562.8015 129.09009,547.98328 111.04046,534.16099 88.18075,511.25511 63.56541,486.59007 47.51744,464.64584 32.57194,435.21481 0.135817,371.34082 -8.287263,296.16511 9.242508,227.00036 30.61985,142.6548 88.62424,70.907936 167.26423,31.539956 262.45904,-16.115538 377.59178,-8.8500599 466.24015,50.406901 538.8428,98.938105 585.84745,174.21406 597.89519,261.24684 c 2.15771,15.58725 2.4679,57.39742 0.54095,72.91341 -6.40916,51.60732 -25.19042,99.88478 -54.95832,141.27108 -9.48046,13.18068 -21.32618,26.63802 -35.91322,40.79925 -45.76844,44.43238 -103.97026,72.5693 -168.44537,81.43273 -13.77646,1.89386 -51.59564,2.72071 -65.37908,1.42941 z m 61.5,-13.51329 C 426.99339,573.99407 506.58509,520.0605 552.06941,438.64985 603.22219,347.09343 598.98745,231.39079 541.26119,143.34495 496.99618,75.830597 427.29698,30.117376 348.19571,16.720176 302.20044,8.9300628 254.54981,12.520386 210.33079,27.107855 126.06797,54.905425 57.145,122.95927 28.17696,206.96469 -0.702026,290.71186 11.159906,383.90054 60.11818,457.89853 c 19.77866,29.89446 43.40971,54.59559 72.12197,75.38785 45.01873,32.60074 95.72968,50.47231 154,54.27272 9.66083,0.63009 37.11632,-0.47916 49,-1.97967 z m -57.5,-15.11346 c -20.36374,-1.82293 -42.85343,-6.46425 -62,-12.79529 -15.52704,-5.1342 -22.5,-8.07056 -22.5,-9.47489 0,-0.60475 2.62746,-1.03554 6.31586,-1.03554 h 6.31586 l 2.33271,-4.25 c 3.12382,-5.69134 5.00134,-7.75 7.06811,-7.75 2.48744,0 4.06995,2.34521 4.68704,6.94596 0.65237,4.86383 1.69017,5.81556 8.21957,7.53799 4.8274,1.27344 5.21415,1.22262 8.70062,-1.14336 l 3.64866,-2.47605 14.36086,1.56773 c 7.89848,0.86225 15.04323,1.56773 15.87723,1.56773 0.834,0 2.02894,1.125 2.65543,2.5 1.11142,2.4393 1.39621,2.49959 11.72857,2.48295 9.93328,-0.016 10.89932,-0.20084 15.58948,-2.98295 3.9758,-2.35836 6.18295,-2.96939 10.775,-2.98295 5.62719,-0.0166 5.79042,0.0601 6.37759,2.99592 0.63128,3.15639 1.00885,3.33809 9.27746,4.46467 3.9269,0.53502 4.66516,0.31188 6.5,-1.96468 1.9207,-2.38308 2.408,-2.50429 6.75852,-1.68119 2.57872,0.48789 6.04933,2.03207 7.71247,3.43151 2.60777,2.19429 4.37082,2.64259 12.81143,3.25767 9.99559,0.72838 14.27981,1.81884 11.28753,2.87298 -8.16869,2.87774 -30.31811,6.93188 -46.85595,8.57632 -9.60927,0.9555 -38.44929,1.15857 -47.64405,0.33547 z M 93.22757,475.41025 c -26.09517,-29.63551 -47.54418,-71.09301 -57.55778,-111.25 -6.47356,-25.9606 -9.93268,-63.38297 -7.64107,-82.66482 0.94297,-7.93431 1.18179,-8.47073 8.45909,-19 9.40009,-13.60069 9.7166,-14.5443 6.07203,-18.10256 -1.55083,-1.5141 -3.93561,-3.4722 -5.2995,-4.35133 -3.10145,-1.99912 -2.99762,-3.7187 1.06981,-17.71835 4.23344,-14.57103 10.90424,-31.23515 18.47944,-46.16294 13.70194,-27.00118 28.36577,-47.05107 50.87259,-69.55817 21.26734,-21.267623 41.6821,-36.51702 65.97484,-49.281846 7.64539,-4.017332 8.23693,-4.159988 17.25,-4.159988 5.13322,0 9.33313,0.277355 9.33313,0.616343 0,0.338989 -2.475,3.289639 -5.5,6.557 -3.025,3.267361 -5.5,6.365007 -5.5,6.883657 0,0.534107 4.81961,0.943 11.11513,0.943 h 11.11513 l 3.4719,-3.75 c 1.90955,-2.0625 6.8472,-8.3625 10.97256,-14 4.12535,-5.6375 8.04791,-10.25 8.7168,-10.25 1.79287,0 7.60848,6.323828 7.60848,8.273385 0,0.922994 -3.54284,5.17657 -7.87297,9.452393 -5.64831,5.577467 -8.38045,9.14089 -9.66892,12.610804 -1.41112,3.800191 -1.5261,5.003364 -0.5366,5.61491 0.69265,0.42808 1.79404,1.851618 2.44754,3.163418 1.14565,2.299725 1.99246,2.463476 23.65956,4.575184 12.35927,1.204552 24.49639,2.571176 26.97139,3.036944 5.21534,0.981469 5.33496,1.629929 1.96317,10.641851 l -2.10687,5.631115 H 252.6683 c -16.17227,0 -24.42815,0.34986 -24.42815,1.03518 0,0.56935 0.68521,2.08095 1.52269,3.3591 0.83747,1.27815 1.2261,3.09679 0.86361,4.04142 -1.21888,3.17635 -4.88479,3.65413 -11.75519,1.53208 -7.17645,-2.21658 -8.30863,-3.17817 -8.79262,-7.46778 -0.27395,-2.42802 -0.80722,-3 -2.79693,-3 -2.65781,0 -4.29519,3.20792 -5.54401,10.86173 -0.99508,6.09863 -4.26085,8.62966 -11.2021,8.68182 -9.80322,0.0737 -13.66392,1.38879 -26.45192,9.01062 -17.44887,10.39979 -28.35016,15.90539 -43.71123,22.07598 l -13.36771,5.36985 -10.06355,15 c -5.53495,8.25 -10.65698,15.59464 -11.38229,16.32143 -0.72531,0.72678 -1.31875,1.96996 -1.31875,2.76261 0,0.79265 -2.5875,2.60183 -5.75,4.0204 l -5.75,2.57922 3.36692,2.65817 c 1.8518,1.46199 4.5518,3.63598 6,4.83109 l 2.63308,2.17292 -2.93709,3.07708 c -1.6154,1.69239 -3.5999,3.07708 -4.41,3.07708 -1.98808,0 -13.15291,-11.26933 -13.15291,-13.27602 0,-0.8778 1.84412,-2.63246 4.09804,-3.89924 4.17202,-2.3448 5.95105,-4.87811 8.5009,-12.10516 1.77415,-5.02846 1.04569,-7.71958 -2.0896,-7.71958 -4.026,0 -8.3628,4.7893 -13.01113,14.36874 -6.21929,12.81691 -7.9086,19.99991 -6.63203,28.19959 0.96161,6.17662 0.87431,6.72192 -1.9295,12.05204 -1.61517,3.0705 -2.93668,6.38717 -2.93668,7.37039 0,3.55238 3.59729,5.84108 15,9.54344 16.04387,5.20931 35.79113,12.96698 54.54237,21.42686 21.75068,9.81312 20.45763,8.76719 20.45763,16.5478 v 6.46276 l 4.25,2.6912 c 17.28915,10.94788 27.05274,17.86754 29.21973,20.7086 5.30687,6.95767 2.36391,12.84084 -9.55703,19.10511 -6.71986,3.53119 -7.30382,4.11602 -9.8736,9.88832 -1.50222,3.37433 -4.38755,11.32331 -6.41184,17.66439 -5.84046,18.29517 -8.66846,21.44439 -17.20646,19.16082 -8.65718,-2.31544 -11.53466,-1.70628 -16.8161,3.55994 -2.62005,2.6125 -6.85742,7.89267 -9.41637,11.73371 -6.45544,9.68972 -17.18833,31.17911 -17.18833,34.41448 0,1.51243 4.57811,11.06439 10.52092,21.95133 5.7865,10.60058 10.25597,19.70247 9.93215,20.22642 -0.68319,1.10541 -7.91731,4.92406 -9.32824,4.92406 -0.52517,0 -2.837,-2.1375 -5.13741,-4.75 z m 360.67925,-36.91667 c -0.36667,-0.36666 -0.66667,-3.20747 -0.66667,-6.31291 0,-4.95259 0.36402,-5.99499 2.96308,-8.48505 2.39361,-2.29323 3.37971,-4.68349 5.13091,-12.43709 2.40792,-10.66134 3.86188,-13.20972 6.35582,-11.13993 1.17145,0.97221 1.55019,3.30593 1.55019,9.55188 0,7.89071 -0.16718,8.50838 -3.68845,13.6274 -2.79023,4.05629 -3.79447,6.64058 -4.12383,10.61222 -0.42729,5.15255 -0.49504,5.25015 -3.64488,5.25015 -1.76523,0 -3.50951,-0.3 -3.87617,-0.66667 z m 66.55584,-11.89003 c -1.42932,-1.00113 -2.22251,-2.59339 -2.22251,-4.46146 0,-3.09906 0.47175,-2.8639 -12,-5.98184 -2.2,-0.55 -5.8,-1.46734 -8,-2.03854 l -4,-1.03855 -0.0153,-26.21145 c -0.008,-14.4163 -0.35508,-26.74581 -0.77035,-27.3989 -0.41528,-0.65309 -1.98339,-1.65445 -3.48469,-2.22525 -4.73756,-1.80121 -2.41091,-6.79837 2.58184,-5.54527 2.01731,0.50632 2.94525,0.0297 4.78371,-2.45694 4.2097,-5.69392 8.4479,-3.49701 10.85115,5.62479 0.96799,3.67413 1.53832,4.29041 4.48153,4.84256 5.69847,1.06904 7.01786,0.36124 7.57212,-4.06213 l 0.5,-3.99032 5.69563,-0.29828 5.69563,-0.29828 0.62176,3.79828 c 1.6656,10.17491 0.86772,9.19662 8.79129,10.77909 0.99236,0.1982 5.85793,-1.06641 10.81236,-2.81023 8.83012,-3.10795 9.03647,-3.13224 10.4457,-1.22945 0.7907,1.06762 1.43763,2.92279 1.43763,4.12261 0,6.27166 -15.708,48.25274 -20.18361,53.94255 -2.83495,3.60404 -12.947,8.49371 -17.56538,8.49371 -2.0933,0 -4.80614,-0.70052 -6.02851,-1.5567 z M 350.4918,418.34092 c -2.34521,-0.3331 -2.69329,-1.1971 -3.73406,-9.26884 -0.5904,-4.57887 -10.99638,-27.06358 -17.54569,-37.91183 l -3.32045,-5.5 -0.72817,-18.5 c -0.74282,-18.87235 -1.21224,-22.41234 -3.57154,-26.93335 -0.73668,-1.41166 -1.34219,-4.23749 -1.34558,-6.27963 -0.003,-2.04214 -0.85296,-5.86714 -1.88795,-8.5 -1.03498,-2.63286 -2.41226,-7.48702 -3.06061,-10.78702 -0.64835,-3.3 -1.81756,-7.67413 -2.59823,-9.72029 -0.78067,-2.04616 -1.15305,-4.41439 -0.82751,-5.26274 0.32554,-0.84834 0.0469,-2.1991 -0.61917,-3.00168 -1.05932,-1.2764 -1.6457,-1.27764 -4.67977,-0.01 -5.21528,2.17916 -18.09235,3.49471 -34.20668,3.49471 h -14.42623 l -16.18846,-16.75 c -23.15764,-23.96093 -22.81091,-23.51908 -23.6379,-30.12203 -0.38769,-3.09538 -0.74286,-8.57305 -0.78927,-12.1726 l -0.0844,-6.54463 29.95289,-20.72884 29.95289,-20.72884 0.29711,-6.21649 c 0.25386,-5.31148 0.58827,-6.26662 2.29711,-6.56089 3.29944,-0.56817 4.5,-3.19546 4.5,-9.84776 0,-6.04396 0.10749,-6.31416 2.75,-6.91267 9.1621,-2.07515 8.76787,-1.8033 8.51615,-5.87244 -0.17384,-2.8102 -2.03429,-6.42529 -7.25,-14.08767 -3.85888,-5.66908 -7.01615,-11.20803 -7.01615,-12.3088 0,-1.10076 1.45089,-3.13687 3.22419,-4.5247 l 3.2242,-2.52331 -1.81784,-8.993135 c -0.99981,-4.946228 -1.54501,-9.434587 -1.21155,-9.974135 0.69801,-1.129404 39.33951,-22.317249 44.58727,-24.448019 1.92155,-0.780215 7.59538,-1.693853 12.60851,-2.030307 13.56235,-0.910228 14.86486,-1.90291 9.38522,-7.152738 -2.15125,-2.061032 -3,-3.811455 -3,-6.187091 0,-1.8221 0.46445,-3.312909 1.03212,-3.312909 2.36454,0 7.62425,2.92291 9.75652,5.421868 l 2.28863,2.682213 10.9447,-5.795664 10.94471,-5.795663 8.73559,2.993623 c 23.21062,7.954114 60.56363,29.434402 83.29773,47.901349 10.74115,8.725053 27.16664,25.430268 36.75051,37.376368 37.75739,47.06383 57.98252,100.48734 60.844,160.71591 0.72544,15.26909 -0.54456,25.5 -3.16541,25.5 -0.9824,0 -1.43321,-1.17215 -1.44224,-3.75 -0.0154,-4.40916 -3.19971,-20.01859 -5.25291,-25.75 -1.8424,-5.143 -3.64113,-5.39875 -6.65759,-0.9466 -2.07513,3.0628 -2.54278,5.32926 -3.25219,15.76189 -0.4557,6.70159 -1.04699,13.14083 -1.31397,14.30942 -0.68298,2.98946 -15.26975,15.57351 -17.3563,14.97334 -0.90964,-0.26166 -4.6258,-0.77365 -8.25812,-1.13778 -7.52707,-0.75455 -7.50874,-0.74545 -10.99558,-5.46027 -4.99648,-6.75611 -5.11517,-7.34223 -2.77341,-13.69587 2.98584,-8.10118 3.37992,-8.44502 9.28439,-8.1008 5.03692,0.29364 5.09141,0.33236 5.34245,3.79667 0.71556,9.87421 1.26123,11.57756 4.28018,13.3609 3.74041,2.20952 4.96619,1.46273 4.96619,-3.02557 0,-7.33311 2.9383,-15.62196 7.03138,-19.83533 5.34188,-5.49887 7.35463,-11.47288 5.99748,-17.80106 -1.1165,-5.20604 -2.69971,-8.79006 -4.36005,-9.87012 -2.36383,-1.53769 -14.2192,5.96553 -21.44513,13.57255 -3.96987,4.17925 -7.58505,7.59863 -8.03373,7.59863 -0.44867,0 -2.02496,-1.26212 -3.50286,-2.80472 -3.1299,-3.26691 -3.33772,-5.97317 -1.13362,-14.76181 0.85441,-3.40686 1.41691,-8.83561 1.25,-12.06388 -0.29923,-5.78766 -0.34534,-5.86959 -3.30347,-5.86959 -2.75187,0 -3.02591,0.31419 -3.31328,3.79881 -0.25238,3.06049 -0.83545,3.99812 -3,4.82434 -2.38742,0.91129 -2.94797,0.68782 -5.03191,-2.00605 l -2.34518,-3.03158 -5.68014,4.70724 c -3.12408,2.58898 -6.79375,5.44555 -8.15482,6.34793 -3.59005,2.38017 -2.10488,3.00034 4.33449,1.80996 6.84469,-1.26531 8.45405,-0.57327 12.45573,5.3561 2.62274,3.88616 2.97264,5.37958 3.51842,15.01746 0.59069,10.43079 0.54675,10.74103 -1.73285,12.23469 -1.28641,0.84288 -3.9836,1.79941 -5.99377,2.12561 l -3.65484,0.5931 0.69736,-11.66432 c 0.5863,-9.80683 0.47468,-11.56107 -0.70093,-11.01595 -2.46264,1.1419 -35.7417,36.969 -39.42805,42.4469 -1.95429,2.90406 -4.54707,8.6896 -5.76174,12.85677 -2.85931,9.80946 -5.95315,12.90153 -20.50394,20.49228 -7.2351,3.77436 -12.38085,7.18815 -14.31852,9.4992 -1.66356,1.98413 -7.25266,12.16548 -12.42021,22.62523 -8.50429,17.2137 -9.84947,19.35823 -14.18069,22.6073 -2.63182,1.97427 -6.36013,4.1522 -8.28513,4.83986 -3.55394,1.26956 -20.63992,2.79931 -24.74835,2.21579 z M 470.67012,270.27356 c 0.30141,-0.48768 -0.1695,-1.48218 -1.04645,-2.20998 -0.87696,-0.72781 -2.66565,-3.74542 -3.97487,-6.7058 -4.24867,-9.60701 -29.53919,-45.84783 -35.11926,-50.32523 -2.21391,-1.77642 2.65227,6.84243 7.71374,13.66239 4.51588,6.08479 6.16677,9.26707 14.0426,27.06868 7.9216,17.90506 8.99536,19.39663 13.96335,19.39663 2.13009,0 4.11949,-0.39901 4.42089,-0.88669 z m -96.8897,-83.83749 c 0.69341,-0.9483 3.66802,-2.1858 6.61024,-2.75 4.34088,-0.83241 5.34949,-1.40291 5.34949,-3.02582 0,-1.82456 0.83333,-2.04386 9.5,-2.5 l 9.5,-0.5 0.31326,-3.24867 c 0.19551,-2.02751 1.08163,-3.65989 2.35736,-4.34264 3.19796,-1.7115 1.14727,-2.60726 -10.40106,-4.54331 l -10.73044,-1.79892 -3.40443,3.71677 c -2.07667,2.26719 -4.32686,3.72106 -5.76956,3.72778 -1.30082,0.006 -3.98504,0.27896 -5.96494,0.60647 -3.1279,0.5174 -3.98288,0.18557 -6.52195,-2.53123 l -2.92214,-3.12668 -4.09071,4.27021 c -4.20336,4.38781 -9.12428,12.34466 -8.20383,13.26512 0.69733,0.69733 17.72526,4.33702 20.7282,4.43062 1.31436,0.041 2.95709,-0.7014 3.65051,-1.6497 z m -27.7366,-13.89588 c 0.28288,-2.90654 -0.28874,-3.52247 -8.35255,-9 -7.815,-5.30852 -9.16126,-5.87994 -13.8531,-5.87994 -4.97368,0 -5.59203,0.31986 -14.39745,7.44731 -8.00436,6.47905 -10.01009,8.54294 -8.95057,9.21011 0.54215,0.34139 31.66679,1.4998 38.25,1.4236 l 7,-0.081 0.30367,-3.12006 z m 66.94633,-15.42768 c 2.8875,-1.2204 5.25,-2.69999 5.25,-3.28798 0,-1.41797 -6.09362,-7.66428 -7.47693,-7.66428 -0.59653,0 -1.57169,1.29046 -2.16702,2.86768 -0.96057,2.54482 -1.71529,2.94676 -6.70348,3.56999 -6.26744,0.78307 -7.13193,1.51626 -6.194,5.25327 0.62237,2.47973 0.86248,2.55652 6.34414,2.02876 3.13351,-0.30169 8.05979,-1.54703 10.94729,-2.76744 z m -15.20751,242.1165 c -0.31654,-0.51219 0.52083,-2.54683 1.86083,-4.52143 1.34,-1.9746 4.52498,-7.31117 7.07773,-11.85904 4.48153,-7.98409 4.98306,-8.48578 14.563,-14.56763 5.45689,-3.46432 10.39748,-6.14015 10.97909,-5.94628 2.16444,0.72148 -21.04264,31.56713 -26.87383,35.7193 -3.10264,2.20928 -6.63081,2.75429 -7.60682,1.17508 z m 95.46777,-60.55639 c -1.0092,-1.21602 -0.67298,-2.35715 1.84153,-6.25 6.22713,-9.64056 8.7489,-11.19729 12.9137,-7.97183 1.41179,1.09336 -1.17479,5.15276 -7.62035,11.95946 -3.87381,4.09086 -5.25412,4.52854 -7.13488,2.26237 z M 246.04714,68.410246 c -4.94553,-5.758308 -3.44619,-10.142234 7.43326,-21.734209 11.03799,-11.760895 17.00371,-15.495632 24.75975,-15.500413 11.67081,-0.0072 22,1.231735 22,2.638777 0,1.305339 -15.68047,13.418748 -28.79857,22.247341 -8.12337,5.467097 -22.33397,14.098504 -23.21154,14.098504 -0.37395,0 -1.35626,-0.7875 -2.1829,-1.75 z m 40.22819,-2.184259 c -0.56935,-1.063842 -1.03518,-3.711991 -1.03518,-5.884776 v -3.950518 l 5.48258,-0.685004 c 3.01543,-0.376752 5.94043,-0.402045 6.5,-0.05621 1.29248,0.798795 1.31705,6.59249 0.0422,9.945663 -0.84699,2.227752 -1.56569,2.5651 -5.46482,2.5651 -3.41524,0 -4.73727,-0.462853 -5.52475,-1.934259 z m 33.8523,-26.815741 c -1.93225,-4.998649 -2.28842,-9.256559 -0.76832,-9.184961 2.94712,0.138813 19.37045,6.488541 19.19001,7.419404 -0.19037,0.982053 -12.21758,4.449401 -15.58392,4.492719 -1.02394,0.01318 -2.22447,-1.140558 -2.83777,-2.727162 z"
       style="fill:#070707"
       inkscape:connector-curvature="0" />
  </g>
  <text
     id="text34"
     y="293.18542"
     x="1574.8727"
     style="font-style:normal;font-variant:normal;font-weight:bold;font-stretch:normal;font-size:133.33332825px;line-height:1.25;font-family:sans-serif;-inkscape-font-specification:'sans-serif Bold';text-align:center;letter-spacing:0px;word-spacing:0px;text-anchor:middle;fill:#b2b2b2;fill-opacity:1;stroke:none"
     xml:space="preserve"
     inkscape:export-xdpi="89.999321"
     inkscape:export-ydpi="89.999321"><tspan
       y="293.18542"
       x="1574.8727"
       id="tspan30"
       sodipodi:role="line"
       style="font-size:120px">Climate and Forecast</tspan><tspan
       id="tspan32"
       y="459.85208"
       x="1574.8727"
       sodipodi:role="line"
       style="font-size:120px">Conventions and Metadata</tspan></text>
</svg>
