<?xml version="1.0" encoding="UTF-8" standalone="no"?><svg xmlns="http://www.w3.org/2000/svg" xmlns:xlink="http://www.w3.org/1999/xlink" contentScriptType="application/ecmascript" contentStyleType="text/css" height="1319px" preserveAspectRatio="none" style="width:1114px;height:1319px;background:#FFFFFF;" version="1.1" viewBox="0 0 1114 1319" width="1114px" zoomAndPan="magnify"><defs><filter height="300%" id="f1unppm0gz72ux" width="300%" x="-1" y="-1"><feGaussianBlur result="blurOut" stdDeviation="2.0"/><feColorMatrix in="blurOut" result="blurOut2" type="matrix" values="0 0 0 0 0 0 0 0 0 0 0 0 0 0 0 0 0 0 .4 0"/><feOffset dx="4.0" dy="4.0" in="blurOut2" result="blurOut3"/><feBlend in="SourceGraphic" in2="blurOut3" mode="normal"/></filter></defs><g><ellipse cx="119.5" cy="90.6045" fill="#000000" filter="url(#f1unppm0gz72ux)" rx="10" ry="10" style="stroke:none;stroke-width:1.0;"/><rect fill="#FEFECE" filter="url(#f1unppm0gz72ux)" height="33.9688" rx="12.5" ry="12.5" style="stroke:#A80036;stroke-width:1.5;" width="171" x="34" y="120.6045"/><text fill="#000000" font-family="sans-serif" font-size="12" lengthAdjust="spacing" textLength="151" x="44" y="141.7432">Discuss idea on "Discuss" list</text><rect fill="#FEFECE" filter="url(#f1unppm0gz72ux)" height="61.9063" rx="12.5" ry="12.5" style="stroke:#A80036;stroke-width:1.5;" width="157" x="41" y="222.9756"/><text fill="#000000" font-family="sans-serif" font-size="12" lengthAdjust="spacing" textLength="94" x="51" y="244.1143">Create issue using</text><text fill="#000000" font-family="sans-serif" font-size="12" lengthAdjust="spacing" textLength="113" x="51" y="258.083">appropriate template</text><text fill="#000000" font-family="sans-serif" font-size="12" lengthAdjust="spacing" textLength="137" x="51" y="272.0518">in Conventions repository</text><rect fill="#FEFECE" filter="url(#f1unppm0gz72ux)" height="33.9688" rx="12.5" ry="12.5" style="stroke:#A80036;stroke-width:1.5;" width="159" x="40" y="562.4673"/><text fill="#000000" font-family="sans-serif" font-size="12" lengthAdjust="spacing" textLength="139" x="50" y="583.606">Revise proposal as needed</text><rect fill="#FEFECE" filter="url(#f1unppm0gz72ux)" height="33.9688" rx="12.5" ry="12.5" style="stroke:#A80036;stroke-width:1.5;" width="143" x="48" y="792.311"/><text fill="#000000" font-family="sans-serif" font-size="12" lengthAdjust="spacing" textLength="123" x="58" y="813.4497">Provide test netCDF file</text><polygon fill="#FEFECE" filter="url(#f1unppm0gz72ux)" points="42,174.5732,197,174.5732,209,186.5732,197,198.5732,42,198.5732,30,186.5732,42,174.5732" style="stroke:#A80036;stroke-width:1.5;"/><text fill="#000000" font-family="sans-serif" font-size="11" lengthAdjust="spacing" textLength="16" x="123.5" y="208.7837">yes</text><text fill="#000000" font-family="sans-serif" font-size="11" lengthAdjust="spacing" textLength="155" x="42" y="190.3813">Change to conventions needed?</text><text fill="#000000" font-family="sans-serif" font-size="11" lengthAdjust="spacing" textLength="12" x="209" y="183.979">no</text><ellipse cx="243" cy="186.5732" fill="#FFFFFF" filter="url(#f1unppm0gz72ux)" rx="11" ry="11" style="stroke:#000000;stroke-width:1.0;"/><ellipse cx="243" cy="186.5732" fill="#000000" rx="6" ry="6" style="stroke:#7F7F7F;stroke-width:1.0;"/><line style="stroke:#000000;stroke-width:2.0;" x1="15" x2="15" y1="12.7451" y2="1307.3306"/><polygon fill="#FEFECE" filter="url(#f1unppm0gz72ux)" points="307.5,304.8818,428.5,304.8818,440.5,316.8818,428.5,328.8818,307.5,328.8818,295.5,316.8818,307.5,304.8818" style="stroke:#A80036;stroke-width:1.5;"/><text fill="#000000" font-family="sans-serif" font-size="11" lengthAdjust="spacing" textLength="12" x="372" y="339.0923">no</text><text fill="#000000" font-family="sans-serif" font-size="11" lengthAdjust="spacing" textLength="121" x="307.5" y="320.6899">A moderator volunteers?</text><rect fill="#FEFECE" filter="url(#f1unppm0gz72ux)" height="33.9688" rx="12.5" ry="12.5" style="stroke:#A80036;stroke-width:1.5;" width="125" x="305.5" y="616.436"/><text fill="#000000" font-family="sans-serif" font-size="12" lengthAdjust="spacing" textLength="105" x="315.5" y="637.5747">Facilitate discussion</text><rect fill="#FEFECE" filter="url(#f1unppm0gz72ux)" height="33.9688" rx="12.5" ry="12.5" style="stroke:#A80036;stroke-width:1.5;" width="138" x="299" y="738.3423"/><text fill="#000000" font-family="sans-serif" font-size="12" lengthAdjust="spacing" textLength="118" x="309" y="759.481">Summarise discussion</text><rect fill="#FEFECE" filter="url(#f1unppm0gz72ux)" height="33.9688" rx="12.5" ry="12.5" style="stroke:#A80036;stroke-width:1.5;" width="196" x="270" y="846.2798"/><text fill="#000000" font-family="sans-serif" font-size="12" lengthAdjust="spacing" textLength="176" x="280" y="867.4185">Allow 3 weeks for new objections</text><polygon fill="#FEFECE" filter="url(#f1unppm0gz72ux)" points="325.5,900.2485,410.5,900.2485,422.5,912.2485,410.5,924.2485,325.5,924.2485,313.5,912.2485,325.5,900.2485" style="stroke:#A80036;stroke-width:1.5;"/><text fill="#000000" font-family="sans-serif" font-size="11" lengthAdjust="spacing" textLength="85" x="325.5" y="916.0566">Objections raised</text><text fill="#000000" font-family="sans-serif" font-size="11" lengthAdjust="spacing" textLength="16" x="422.5" y="909.6543">yes</text><polygon fill="#FEFECE" filter="url(#f1unppm0gz72ux)" points="318.5,944.2485,417.5,944.2485,429.5,956.2485,417.5,968.2485,318.5,968.2485,306.5,956.2485,318.5,944.2485" style="stroke:#A80036;stroke-width:1.5;"/><text fill="#000000" font-family="sans-serif" font-size="11" lengthAdjust="spacing" textLength="35" x="372" y="978.459">Almost</text><text fill="#000000" font-family="sans-serif" font-size="11" lengthAdjust="spacing" textLength="99" x="318.5" y="960.0566">Consensus reached?</text><polygon fill="#FEFECE" filter="url(#f1unppm0gz72ux)" points="368,1148.9907,380,1160.9907,368,1172.9907,356,1160.9907,368,1148.9907" style="stroke:#A80036;stroke-width:1.5;"/><line style="stroke:#000000;stroke-width:2.0;" x1="264" x2="264" y1="12.7451" y2="1307.3306"/><rect fill="#FEFECE" filter="url(#f1unppm0gz72ux)" height="33.9688" rx="12.5" ry="12.5" style="stroke:#A80036;stroke-width:1.5;" width="116" x="510" y="360.5923"/><text fill="#000000" font-family="sans-serif" font-size="12" lengthAdjust="spacing" textLength="96" x="520" y="381.731">Ask for volunteers</text><line style="stroke:#000000;stroke-width:2.0;" x1="504" x2="504" y1="12.7451" y2="1307.3306"/><rect fill="#FEFECE" filter="url(#f1unppm0gz72ux)" height="61.9063" rx="12.5" ry="12.5" style="stroke:#A80036;stroke-width:1.5;" width="142" x="642" y="480.561"/><text fill="#000000" font-family="sans-serif" font-size="12" lengthAdjust="spacing" textLength="71" x="652" y="501.6997">Discuss issue,</text><text fill="#000000" font-family="sans-serif" font-size="12" lengthAdjust="spacing" textLength="100" x="652" y="515.6685">proposed text, and</text><text fill="#000000" font-family="sans-serif" font-size="12" lengthAdjust="spacing" textLength="122" x="652" y="529.6372">impacts on data model</text><rect fill="#FEFECE" filter="url(#f1unppm0gz72ux)" height="47.9375" rx="12.5" ry="12.5" style="stroke:#A80036;stroke-width:1.5;" width="136" x="645" y="670.4048"/><text fill="#000000" font-family="sans-serif" font-size="12" lengthAdjust="spacing" textLength="112" x="655" y="691.5435">3 weeks pass without</text><text fill="#000000" font-family="sans-serif" font-size="12" lengthAdjust="spacing" textLength="116" x="655" y="705.5122">changes or objections</text><polygon fill="#FEFECE" filter="url(#f1unppm0gz72ux)" points="713,436.561,725,448.561,713,460.561,701,448.561,713,436.561" style="stroke:#A80036;stroke-width:1.5;"/><line style="stroke:#000000;stroke-width:2.0;" x1="636" x2="636" y1="12.7451" y2="1307.3306"/><rect fill="#FEFECE" filter="url(#f1unppm0gz72ux)" height="33.9688" rx="12.5" ry="12.5" style="stroke:#A80036;stroke-width:1.5;" width="44" x="820" y="992.6509"/><text fill="#000000" font-family="sans-serif" font-size="12" lengthAdjust="spacing" textLength="24" x="830" y="1013.7896">Vote</text><rect fill="#FEFECE" filter="url(#f1unppm0gz72ux)" height="33.9688" rx="12.5" ry="12.5" style="stroke:#A80036;stroke-width:1.5;" width="72" x="806" y="1095.022"/><text fill="#000000" font-family="sans-serif" font-size="12" lengthAdjust="spacing" textLength="52" x="816" y="1116.1606">Approved</text><polygon fill="#FEFECE" filter="url(#f1unppm0gz72ux)" points="821,1046.6196,863,1046.6196,875,1058.6196,863,1070.6196,821,1070.6196,809,1058.6196,821,1046.6196" style="stroke:#A80036;stroke-width:1.5;"/><text fill="#000000" font-family="sans-serif" font-size="11" lengthAdjust="spacing" textLength="12" x="846" y="1080.8301">no</text><text fill="#000000" font-family="sans-serif" font-size="11" lengthAdjust="spacing" textLength="42" x="821" y="1062.4277">Rejected</text><text fill="#000000" font-family="sans-serif" font-size="11" lengthAdjust="spacing" textLength="16" x="875" y="1056.0254">yes</text><ellipse cx="913" cy="1058.6196" fill="#FFFFFF" filter="url(#f1unppm0gz72ux)" rx="11" ry="11" style="stroke:#000000;stroke-width:1.0;"/><ellipse cx="913" cy="1058.6196" fill="#000000" rx="6" ry="6" style="stroke:#7F7F7F;stroke-width:1.0;"/><line style="stroke:#000000;stroke-width:2.0;" x1="794" x2="794" y1="12.7451" y2="1307.3306"/><rect fill="#FEFECE" filter="url(#f1unppm0gz72ux)" height="47.9375" rx="12.5" ry="12.5" style="stroke:#A80036;stroke-width:1.5;" width="142" x="941.5" y="1192.9907"/><text fill="#000000" font-family="sans-serif" font-size="12" lengthAdjust="spacing" textLength="83" x="951.5" y="1214.1294">Merge into next</text><text fill="#000000" font-family="sans-serif" font-size="12" lengthAdjust="spacing" textLength="122" x="951.5" y="1228.0981">version of Conventions</text><ellipse cx="1012.5" cy="1271.9282" fill="#FFFFFF" filter="url(#f1unppm0gz72ux)" rx="11" ry="11" style="stroke:#000000;stroke-width:1.0;"/><ellipse cx="1012.5" cy="1271.9282" fill="#000000" rx="6" ry="6" style="stroke:#7F7F7F;stroke-width:1.0;"/><line style="stroke:#000000;stroke-width:2.0;" x1="934" x2="934" y1="12.7451" y2="1307.3306"/><line style="stroke:#000000;stroke-width:2.0;" x1="1095" x2="1095" y1="12.7451" y2="1307.3306"/><polygon fill="#A80036" points="648.5,363.1743,652.5,353.1743,656.5,363.1743,652.5,359.1743" style="stroke:#A80036;stroke-width:1.0;"/><line style="stroke:#A80036;stroke-width:1.5;" x1="119.5" x2="119.5" y1="100.6045" y2="120.6045"/><polygon fill="#A80036" points="115.5,110.6045,119.5,120.6045,123.5,110.6045,119.5,114.6045" style="stroke:#A80036;stroke-width:1.0;"/><line style="stroke:#A80036;stroke-width:1.5;" x1="119.5" x2="119.5" y1="198.5732" y2="222.9756"/><polygon fill="#A80036" points="115.5,212.9756,119.5,222.9756,123.5,212.9756,119.5,216.9756" style="stroke:#A80036;stroke-width:1.0;"/><line style="stroke:#A80036;stroke-width:1.5;" x1="209" x2="232" y1="186.5732" y2="186.5732"/><polygon fill="#A80036" points="222,182.5732,232,186.5732,222,190.5732,226,186.5732" style="stroke:#A80036;stroke-width:1.0;"/><line style="stroke:#A80036;stroke-width:1.5;" x1="119.5" x2="119.5" y1="154.5732" y2="174.5732"/><polygon fill="#A80036" points="115.5,164.5732,119.5,174.5732,123.5,164.5732,119.5,168.5732" style="stroke:#A80036;stroke-width:1.0;"/><line style="stroke:#A80036;stroke-width:1.5;" x1="295.5" x2="283.5" y1="316.8818" y2="316.8818"/><polygon fill="#A80036" points="279.5,363.9243,283.5,373.9243,287.5,363.9243,283.5,367.9243" style="stroke:#A80036;stroke-width:1.5;"/><line style="stroke:#A80036;stroke-width:1.5;" x1="283.5" x2="283.5" y1="316.8818" y2="421.561"/><line style="stroke:#A80036;stroke-width:1.5;" x1="283.5" x2="713" y1="421.561" y2="421.561"/><line style="stroke:#A80036;stroke-width:1.5;" x1="713" x2="713" y1="421.561" y2="436.561"/><polygon fill="#A80036" points="709,426.561,713,436.561,717,426.561,713,430.561" style="stroke:#A80036;stroke-width:1.0;"/><line style="stroke:#A80036;stroke-width:1.5;" x1="368" x2="368" y1="880.2485" y2="900.2485"/><polygon fill="#A80036" points="364,890.2485,368,900.2485,372,890.2485,368,894.2485" style="stroke:#A80036;stroke-width:1.0;"/><line style="stroke:#A80036;stroke-width:1.5;" x1="429.5" x2="485" y1="956.2485" y2="956.2485"/><polygon fill="#A80036" points="481,1055.522,485,1065.522,489,1055.522,485,1059.522" style="stroke:#A80036;stroke-width:1.5;"/><line style="stroke:#A80036;stroke-width:1.5;" x1="485" x2="485" y1="956.2485" y2="1160.9907"/><line style="stroke:#A80036;stroke-width:1.5;" x1="485" x2="380" y1="1160.9907" y2="1160.9907"/><polygon fill="#A80036" points="390,1156.9907,380,1160.9907,390,1164.9907,386,1160.9907" style="stroke:#A80036;stroke-width:1.0;"/><line style="stroke:#A80036;stroke-width:1.5;" x1="368" x2="368" y1="924.2485" y2="944.2485"/><polygon fill="#A80036" points="364,934.2485,368,944.2485,372,934.2485,368,938.2485" style="stroke:#A80036;stroke-width:1.0;"/><line style="stroke:#A80036;stroke-width:1.5;" x1="713" x2="713" y1="460.561" y2="480.561"/><polygon fill="#A80036" points="709,470.561,713,480.561,717,470.561,713,474.561" style="stroke:#A80036;stroke-width:1.0;"/><line style="stroke:#A80036;stroke-width:1.5;" x1="842" x2="842" y1="1070.6196" y2="1095.022"/><polygon fill="#A80036" points="838,1085.022,842,1095.022,846,1085.022,842,1089.022" style="stroke:#A80036;stroke-width:1.0;"/><line style="stroke:#A80036;stroke-width:1.5;" x1="875" x2="902" y1="1058.6196" y2="1058.6196"/><polygon fill="#A80036" points="892,1054.6196,902,1058.6196,892,1062.6196,896,1058.6196" style="stroke:#A80036;stroke-width:1.0;"/><line style="stroke:#A80036;stroke-width:1.5;" x1="842" x2="842" y1="1128.9907" y2="1136.7896"/><line style="stroke:#A80036;stroke-width:1.5;" x1="842" x2="368" y1="1136.7896" y2="1136.7896"/><line style="stroke:#A80036;stroke-width:1.5;" x1="368" x2="368" y1="1136.7896" y2="1148.9907"/><polygon fill="#A80036" points="364,1138.9907,368,1148.9907,372,1138.9907,368,1142.9907" style="stroke:#A80036;stroke-width:1.0;"/><line style="stroke:#A80036;stroke-width:1.5;" x1="842" x2="842" y1="1026.6196" y2="1046.6196"/><polygon fill="#A80036" points="838,1036.6196,842,1046.6196,846,1036.6196,842,1040.6196" style="stroke:#A80036;stroke-width:1.0;"/><line style="stroke:#A80036;stroke-width:1.5;" x1="1012.5" x2="1012.5" y1="1240.9282" y2="1260.9282"/><polygon fill="#A80036" points="1008.5,1250.9282,1012.5,1260.9282,1016.5,1250.9282,1012.5,1254.9282" style="stroke:#A80036;stroke-width:1.0;"/><line style="stroke:#A80036;stroke-width:1.5;" x1="368" x2="368" y1="328.8818" y2="345.5923"/><line style="stroke:#A80036;stroke-width:1.5;" x1="368" x2="568" y1="345.5923" y2="345.5923"/><line style="stroke:#A80036;stroke-width:1.5;" x1="568" x2="568" y1="345.5923" y2="360.5923"/><polygon fill="#A80036" points="564,350.5923,568,360.5923,572,350.5923,568,354.5923" style="stroke:#A80036;stroke-width:1.0;"/><line style="stroke:#A80036;stroke-width:1.5;" x1="568" x2="568" y1="394.561" y2="404.561"/><line style="stroke:#A80036;stroke-width:1.5;" x1="568" x2="652.5" y1="404.561" y2="404.561"/><line style="stroke:#A80036;stroke-width:1.5;" x1="652.5" x2="652.5" y1="316.8818" y2="404.561"/><line style="stroke:#A80036;stroke-width:1.5;" x1="652.5" x2="440.5" y1="316.8818" y2="316.8818"/><polygon fill="#A80036" points="450.5,312.8818,440.5,316.8818,450.5,320.8818,446.5,316.8818" style="stroke:#A80036;stroke-width:1.0;"/><line style="stroke:#A80036;stroke-width:1.5;" x1="119.5" x2="119.5" y1="284.8818" y2="289.8818"/><line style="stroke:#A80036;stroke-width:1.5;" x1="119.5" x2="368" y1="289.8818" y2="289.8818"/><line style="stroke:#A80036;stroke-width:1.5;" x1="368" x2="368" y1="289.8818" y2="304.8818"/><polygon fill="#A80036" points="364,294.8818,368,304.8818,372,294.8818,368,298.8818" style="stroke:#A80036;stroke-width:1.0;"/><line style="stroke:#A80036;stroke-width:1.5;" x1="713" x2="713" y1="542.4673" y2="547.4673"/><line style="stroke:#A80036;stroke-width:1.5;" x1="713" x2="119.5" y1="547.4673" y2="547.4673"/><line style="stroke:#A80036;stroke-width:1.5;" x1="119.5" x2="119.5" y1="547.4673" y2="562.4673"/><polygon fill="#A80036" points="115.5,552.4673,119.5,562.4673,123.5,552.4673,119.5,556.4673" style="stroke:#A80036;stroke-width:1.0;"/><line style="stroke:#A80036;stroke-width:1.5;" x1="119.5" x2="119.5" y1="596.436" y2="601.436"/><line style="stroke:#A80036;stroke-width:1.5;" x1="119.5" x2="368" y1="601.436" y2="601.436"/><line style="stroke:#A80036;stroke-width:1.5;" x1="368" x2="368" y1="601.436" y2="616.436"/><polygon fill="#A80036" points="364,606.436,368,616.436,372,606.436,368,610.436" style="stroke:#A80036;stroke-width:1.0;"/><line style="stroke:#A80036;stroke-width:1.5;" x1="368" x2="368" y1="650.4048" y2="655.4048"/><line style="stroke:#A80036;stroke-width:1.5;" x1="368" x2="713" y1="655.4048" y2="655.4048"/><line style="stroke:#A80036;stroke-width:1.5;" x1="713" x2="713" y1="655.4048" y2="670.4048"/><polygon fill="#A80036" points="709,660.4048,713,670.4048,717,660.4048,713,664.4048" style="stroke:#A80036;stroke-width:1.0;"/><line style="stroke:#A80036;stroke-width:1.5;" x1="713" x2="713" y1="718.3423" y2="723.3423"/><line style="stroke:#A80036;stroke-width:1.5;" x1="713" x2="368" y1="723.3423" y2="723.3423"/><line style="stroke:#A80036;stroke-width:1.5;" x1="368" x2="368" y1="723.3423" y2="738.3423"/><polygon fill="#A80036" points="364,728.3423,368,738.3423,372,728.3423,368,732.3423" style="stroke:#A80036;stroke-width:1.0;"/><line style="stroke:#A80036;stroke-width:1.5;" x1="368" x2="368" y1="772.311" y2="777.311"/><line style="stroke:#A80036;stroke-width:1.5;" x1="368" x2="119.5" y1="777.311" y2="777.311"/><line style="stroke:#A80036;stroke-width:1.5;" x1="119.5" x2="119.5" y1="777.311" y2="792.311"/><polygon fill="#A80036" points="115.5,782.311,119.5,792.311,123.5,782.311,119.5,786.311" style="stroke:#A80036;stroke-width:1.0;"/><line style="stroke:#A80036;stroke-width:1.5;" x1="119.5" x2="119.5" y1="826.2798" y2="831.2798"/><line style="stroke:#A80036;stroke-width:1.5;" x1="119.5" x2="368" y1="831.2798" y2="831.2798"/><line style="stroke:#A80036;stroke-width:1.5;" x1="368" x2="368" y1="831.2798" y2="846.2798"/><polygon fill="#A80036" points="364,836.2798,368,846.2798,372,836.2798,368,840.2798" style="stroke:#A80036;stroke-width:1.0;"/><line style="stroke:#A80036;stroke-width:1.5;" x1="422.5" x2="478" y1="912.2485" y2="912.2485"/><polygon fill="#A80036" points="474,690.4048,478,680.4048,482,690.4048,478,686.4048" style="stroke:#A80036;stroke-width:1.5;"/><line style="stroke:#A80036;stroke-width:1.5;" x1="478" x2="478" y1="448.561" y2="912.2485"/><line style="stroke:#A80036;stroke-width:1.5;" x1="478" x2="701" y1="448.561" y2="448.561"/><polygon fill="#A80036" points="691,444.561,701,448.561,691,452.561,695,448.561" style="stroke:#A80036;stroke-width:1.0;"/><line style="stroke:#A80036;stroke-width:1.5;" x1="368" x2="368" y1="968.2485" y2="980.4497"/><line style="stroke:#A80036;stroke-width:1.5;" x1="368" x2="842" y1="980.4497" y2="980.4497"/><line style="stroke:#A80036;stroke-width:1.5;" x1="842" x2="842" y1="980.4497" y2="992.6509"/><polygon fill="#A80036" points="838,982.6509,842,992.6509,846,982.6509,842,986.6509" style="stroke:#A80036;stroke-width:1.0;"/><line style="stroke:#A80036;stroke-width:1.5;" x1="368" x2="368" y1="1172.9907" y2="1177.9907"/><line style="stroke:#A80036;stroke-width:1.5;" x1="368" x2="1012.5" y1="1177.9907" y2="1177.9907"/><line style="stroke:#A80036;stroke-width:1.5;" x1="1012.5" x2="1012.5" y1="1177.9907" y2="1192.9907"/><polygon fill="#A80036" points="1008.5,1182.9907,1012.5,1192.9907,1016.5,1182.9907,1012.5,1186.9907" style="stroke:#A80036;stroke-width:1.0;"/><text fill="#000000" font-family="sans-serif" font-size="18" lengthAdjust="spacing" textLength="73" x="103" y="29.4531">Proposer</text><text fill="#000000" font-family="sans-serif" font-size="18" lengthAdjust="spacing" textLength="87" x="340.5" y="29.4531">Moderator</text><text fill="#000000" font-family="sans-serif" font-size="18" lengthAdjust="spacing" textLength="102" x="516.5" y="29.4531">Conventions</text><text fill="#000000" font-family="sans-serif" font-size="18" lengthAdjust="spacing" textLength="90" x="516.5" y="50.4063">Committee</text><text fill="#000000" font-family="sans-serif" font-size="18" lengthAdjust="spacing" textLength="41" x="516.5" y="71.3594">chair</text><text fill="#000000" font-family="sans-serif" font-size="18" lengthAdjust="spacing" textLength="95" x="667.5" y="29.4531">Community</text><text fill="#000000" font-family="sans-serif" font-size="18" lengthAdjust="spacing" textLength="102" x="810.5" y="29.4531">Conventions</text><text fill="#000000" font-family="sans-serif" font-size="18" lengthAdjust="spacing" textLength="90" x="810.5" y="50.4063">Committee</text><text fill="#000000" font-family="sans-serif" font-size="18" lengthAdjust="spacing" textLength="98" x="939" y="29.4531">Information</text><text fill="#000000" font-family="sans-serif" font-size="18" lengthAdjust="spacing" textLength="146" x="939" y="50.4063">management and</text><text fill="#000000" font-family="sans-serif" font-size="18" lengthAdjust="spacing" textLength="111" x="939" y="71.3594">support team</text><!--MD5=[fcef79c964752e64d60aa61a2d2d11d4]
@startuml
|Proposer|
start

:Discuss idea on "Discuss" list;
if (Change to conventions needed?) then (no)
  stop
else (yes)
  :Create issue using
  appropriate template
  in Conventions repository;

|Moderator|
while (A moderator volunteers?) is (no)
|Conventions \nCommittee \nchair|
  :Ask for volunteers;
endwhile

repeat
|Community|
:Discuss issue,
proposed text, and
impacts on data model;

|Proposer|
:Revise proposal as needed;

|Moderator|
:Facilitate discussion;

|Community|
:3 weeks pass without \nchanges or objections;

|Moderator|
:Summarise discussion;

|Proposer|
:Provide test netCDF file;

|Moderator|
:Allow 3 weeks for new objections;
repeat while (Objections raised) is (yes)

if (Consensus reached?) then (Almost);
  |Conventions \nCommittee|
  :Vote;
  if (Rejected) then (yes)
    stop
  else (no)
    :Approved;
  endif
endif
|Information \nmanagement and \nsupport team|
:Merge into next \nversion of Conventions;

stop
@enduml

PlantUML version 1.2021.10(Mon Aug 30 13:43:48 GMT 2021)
(GPL source distribution)
Java Runtime: OpenJDK Runtime Environment
JVM: OpenJDK 64-Bit Server VM
Default Encoding: UTF-8
Language: en
Country: US
--></g></svg>