<?xml version="1.0" encoding="UTF-8" standalone="no"?><svg xmlns="http://www.w3.org/2000/svg" xmlns:xlink="http://www.w3.org/1999/xlink" contentScriptType="application/ecmascript" contentStyleType="text/css" height="1305px" preserveAspectRatio="none" style="width:1108px;height:1305px;background:#FFFFFF;" version="1.1" viewBox="0 0 1108 1305" width="1108px" zoomAndPan="magnify"><defs><filter height="300%" id="f1tfear807xr43" width="300%" x="-1" y="-1"><feGaussianBlur result="blurOut" stdDeviation="2.0"/><feColorMatrix in="blurOut" result="blurOut2" type="matrix" values="0 0 0 0 0 0 0 0 0 0 0 0 0 0 0 0 0 0 .4 0"/><feOffset dx="4.0" dy="4.0" in="blurOut2" result="blurOut3"/><feBlend in="SourceGraphic" in2="blurOut3" mode="normal"/></filter></defs><g><ellipse cx="119.5" cy="90.6045" fill="#000000" filter="url(#f1tfear807xr43)" rx="10" ry="10" style="stroke:none;stroke-width:1.0;"/><rect fill="#FEFECE" filter="url(#f1tfear807xr43)" height="33.9688" rx="12.5" ry="12.5" style="stroke:#A80036;stroke-width:1.5;" width="171" x="34" y="120.6045"/><text fill="#000000" font-family="sans-serif" font-size="12" lengthAdjust="spacing" textLength="151" x="44" y="141.7432">Discuss idea on "Discuss" list</text><rect fill="#FEFECE" filter="url(#f1tfear807xr43)" height="61.9063" rx="12.5" ry="12.5" style="stroke:#A80036;stroke-width:1.5;" width="157" x="41" y="222.9756"/><text fill="#000000" font-family="sans-serif" font-size="12" lengthAdjust="spacing" textLength="94" x="51" y="244.1143">Create issue using</text><text fill="#000000" font-family="sans-serif" font-size="12" lengthAdjust="spacing" textLength="113" x="51" y="258.083">appropriate template</text><text fill="#000000" font-family="sans-serif" font-size="12" lengthAdjust="spacing" textLength="137" x="51" y="272.0518">in Conventions repository</text><rect fill="#FEFECE" filter="url(#f1tfear807xr43)" height="33.9688" rx="12.5" ry="12.5" style="stroke:#A80036;stroke-width:1.5;" width="159" x="40" y="548.4985"/><text fill="#000000" font-family="sans-serif" font-size="12" lengthAdjust="spacing" textLength="139" x="50" y="569.6372">Revise proposal as needed</text><rect fill="#FEFECE" filter="url(#f1tfear807xr43)" height="33.9688" rx="12.5" ry="12.5" style="stroke:#A80036;stroke-width:1.5;" width="143" x="48" y="778.3423"/><text fill="#000000" font-family="sans-serif" font-size="12" lengthAdjust="spacing" textLength="123" x="58" y="799.481">Provide test netCDF file</text><polygon fill="#FEFECE" filter="url(#f1tfear807xr43)" points="42,174.5732,197,174.5732,209,186.5732,197,198.5732,42,198.5732,30,186.5732,42,174.5732" style="stroke:#A80036;stroke-width:1.5;"/><text fill="#000000" font-family="sans-serif" font-size="11" lengthAdjust="spacing" textLength="16" x="123.5" y="208.7837">yes</text><text fill="#000000" font-family="sans-serif" font-size="11" lengthAdjust="spacing" textLength="155" x="42" y="190.3813">Change to conventions needed?</text><text fill="#000000" font-family="sans-serif" font-size="11" lengthAdjust="spacing" textLength="12" x="209" y="183.979">no</text><ellipse cx="243" cy="186.5732" fill="#FFFFFF" filter="url(#f1tfear807xr43)" rx="11" ry="11" style="stroke:#000000;stroke-width:1.0;"/><ellipse cx="243" cy="186.5732" fill="#000000" rx="6" ry="6" style="stroke:#7F7F7F;stroke-width:1.0;"/><line style="stroke:#000000;stroke-width:2.0;" x1="15" x2="15" y1="12.7451" y2="1293.3618"/><polygon fill="#FEFECE" filter="url(#f1tfear807xr43)" points="307.5,304.8818,428.5,304.8818,440.5,316.8818,428.5,328.8818,307.5,328.8818,295.5,316.8818,307.5,304.8818" style="stroke:#A80036;stroke-width:1.5;"/><text fill="#000000" font-family="sans-serif" font-size="11" lengthAdjust="spacing" textLength="12" x="372" y="339.0923">no</text><text fill="#000000" font-family="sans-serif" font-size="11" lengthAdjust="spacing" textLength="121" x="307.5" y="320.6899">A moderator volunteers?</text><rect fill="#FEFECE" filter="url(#f1tfear807xr43)" height="33.9688" rx="12.5" ry="12.5" style="stroke:#A80036;stroke-width:1.5;" width="125" x="305.5" y="602.4673"/><text fill="#000000" font-family="sans-serif" font-size="12" lengthAdjust="spacing" textLength="105" x="315.5" y="623.606">Facilitate discussion</text><rect fill="#FEFECE" filter="url(#f1tfear807xr43)" height="33.9688" rx="12.5" ry="12.5" style="stroke:#A80036;stroke-width:1.5;" width="138" x="299" y="724.3735"/><text fill="#000000" font-family="sans-serif" font-size="12" lengthAdjust="spacing" textLength="118" x="309" y="745.5122">Summarise discussion</text><rect fill="#FEFECE" filter="url(#f1tfear807xr43)" height="33.9688" rx="12.5" ry="12.5" style="stroke:#A80036;stroke-width:1.5;" width="196" x="270" y="832.311"/><text fill="#000000" font-family="sans-serif" font-size="12" lengthAdjust="spacing" textLength="176" x="280" y="853.4497">Allow 3 weeks for new objections</text><polygon fill="#FEFECE" filter="url(#f1tfear807xr43)" points="325.5,886.2798,410.5,886.2798,422.5,898.2798,410.5,910.2798,325.5,910.2798,313.5,898.2798,325.5,886.2798" style="stroke:#A80036;stroke-width:1.5;"/><text fill="#000000" font-family="sans-serif" font-size="11" lengthAdjust="spacing" textLength="85" x="325.5" y="902.0879">Objections raised</text><text fill="#000000" font-family="sans-serif" font-size="11" lengthAdjust="spacing" textLength="16" x="422.5" y="895.6855">yes</text><polygon fill="#FEFECE" filter="url(#f1tfear807xr43)" points="318.5,930.2798,417.5,930.2798,429.5,942.2798,417.5,954.2798,318.5,954.2798,306.5,942.2798,318.5,930.2798" style="stroke:#A80036;stroke-width:1.5;"/><text fill="#000000" font-family="sans-serif" font-size="11" lengthAdjust="spacing" textLength="35" x="372" y="964.4902">Almost</text><text fill="#000000" font-family="sans-serif" font-size="11" lengthAdjust="spacing" textLength="99" x="318.5" y="946.0879">Consensus reached?</text><polygon fill="#FEFECE" filter="url(#f1tfear807xr43)" points="368,1135.022,380,1147.022,368,1159.022,356,1147.022,368,1135.022" style="stroke:#A80036;stroke-width:1.5;"/><line style="stroke:#000000;stroke-width:2.0;" x1="264" x2="264" y1="12.7451" y2="1293.3618"/><rect fill="#FEFECE" filter="url(#f1tfear807xr43)" height="33.9688" rx="12.5" ry="12.5" style="stroke:#A80036;stroke-width:1.5;" width="116" x="510" y="360.5923"/><text fill="#000000" font-family="sans-serif" font-size="12" lengthAdjust="spacing" textLength="96" x="520" y="381.731">Ask for volunteers</text><line style="stroke:#000000;stroke-width:2.0;" x1="504" x2="504" y1="12.7451" y2="1293.3618"/><rect fill="#FEFECE" filter="url(#f1tfear807xr43)" height="47.9375" rx="12.5" ry="12.5" style="stroke:#A80036;stroke-width:1.5;" width="111" x="654.5" y="480.561"/><text fill="#000000" font-family="sans-serif" font-size="12" lengthAdjust="spacing" textLength="91" x="664.5" y="501.6997">Discuss issue and</text><text fill="#000000" font-family="sans-serif" font-size="12" lengthAdjust="spacing" textLength="74" x="664.5" y="515.6685">proposed text</text><rect fill="#FEFECE" filter="url(#f1tfear807xr43)" height="47.9375" rx="12.5" ry="12.5" style="stroke:#A80036;stroke-width:1.5;" width="136" x="642" y="656.436"/><text fill="#000000" font-family="sans-serif" font-size="12" lengthAdjust="spacing" textLength="112" x="652" y="677.5747">3 weeks pass without</text><text fill="#000000" font-family="sans-serif" font-size="12" lengthAdjust="spacing" textLength="116" x="652" y="691.5435">changes or objections</text><polygon fill="#FEFECE" filter="url(#f1tfear807xr43)" points="710,436.561,722,448.561,710,460.561,698,448.561,710,436.561" style="stroke:#A80036;stroke-width:1.5;"/><line style="stroke:#000000;stroke-width:2.0;" x1="636" x2="636" y1="12.7451" y2="1293.3618"/><rect fill="#FEFECE" filter="url(#f1tfear807xr43)" height="33.9688" rx="12.5" ry="12.5" style="stroke:#A80036;stroke-width:1.5;" width="44" x="814" y="978.6821"/><text fill="#000000" font-family="sans-serif" font-size="12" lengthAdjust="spacing" textLength="24" x="824" y="999.8208">Vote</text><rect fill="#FEFECE" filter="url(#f1tfear807xr43)" height="33.9688" rx="12.5" ry="12.5" style="stroke:#A80036;stroke-width:1.5;" width="72" x="800" y="1081.0532"/><text fill="#000000" font-family="sans-serif" font-size="12" lengthAdjust="spacing" textLength="52" x="810" y="1102.1919">Approved</text><polygon fill="#FEFECE" filter="url(#f1tfear807xr43)" points="815,1032.6509,857,1032.6509,869,1044.6509,857,1056.6509,815,1056.6509,803,1044.6509,815,1032.6509" style="stroke:#A80036;stroke-width:1.5;"/><text fill="#000000" font-family="sans-serif" font-size="11" lengthAdjust="spacing" textLength="12" x="840" y="1066.8613">no</text><text fill="#000000" font-family="sans-serif" font-size="11" lengthAdjust="spacing" textLength="42" x="815" y="1048.459">Rejected</text><text fill="#000000" font-family="sans-serif" font-size="11" lengthAdjust="spacing" textLength="16" x="869" y="1042.0566">yes</text><ellipse cx="907" cy="1044.6509" fill="#FFFFFF" filter="url(#f1tfear807xr43)" rx="11" ry="11" style="stroke:#000000;stroke-width:1.0;"/><ellipse cx="907" cy="1044.6509" fill="#000000" rx="6" ry="6" style="stroke:#7F7F7F;stroke-width:1.0;"/><line style="stroke:#000000;stroke-width:2.0;" x1="788" x2="788" y1="12.7451" y2="1293.3618"/><rect fill="#FEFECE" filter="url(#f1tfear807xr43)" height="47.9375" rx="12.5" ry="12.5" style="stroke:#A80036;stroke-width:1.5;" width="142" x="935.5" y="1179.022"/><text fill="#000000" font-family="sans-serif" font-size="12" lengthAdjust="spacing" textLength="83" x="945.5" y="1200.1606">Merge into next</text><text fill="#000000" font-family="sans-serif" font-size="12" lengthAdjust="spacing" textLength="122" x="945.5" y="1214.1294">version of Conventions</text><ellipse cx="1006.5" cy="1257.9595" fill="#FFFFFF" filter="url(#f1tfear807xr43)" rx="11" ry="11" style="stroke:#000000;stroke-width:1.0;"/><ellipse cx="1006.5" cy="1257.9595" fill="#000000" rx="6" ry="6" style="stroke:#7F7F7F;stroke-width:1.0;"/><line style="stroke:#000000;stroke-width:2.0;" x1="928" x2="928" y1="12.7451" y2="1293.3618"/><line style="stroke:#000000;stroke-width:2.0;" x1="1089" x2="1089" y1="12.7451" y2="1293.3618"/><polygon fill="#A80036" points="648.5,363.1743,652.5,353.1743,656.5,363.1743,652.5,359.1743" style="stroke:#A80036;stroke-width:1.0;"/><line style="stroke:#A80036;stroke-width:1.5;" x1="119.5" x2="119.5" y1="100.6045" y2="120.6045"/><polygon fill="#A80036" points="115.5,110.6045,119.5,120.6045,123.5,110.6045,119.5,114.6045" style="stroke:#A80036;stroke-width:1.0;"/><line style="stroke:#A80036;stroke-width:1.5;" x1="119.5" x2="119.5" y1="198.5732" y2="222.9756"/><polygon fill="#A80036" points="115.5,212.9756,119.5,222.9756,123.5,212.9756,119.5,216.9756" style="stroke:#A80036;stroke-width:1.0;"/><line style="stroke:#A80036;stroke-width:1.5;" x1="209" x2="232" y1="186.5732" y2="186.5732"/><polygon fill="#A80036" points="222,182.5732,232,186.5732,222,190.5732,226,186.5732" style="stroke:#A80036;stroke-width:1.0;"/><line style="stroke:#A80036;stroke-width:1.5;" x1="119.5" x2="119.5" y1="154.5732" y2="174.5732"/><polygon fill="#A80036" points="115.5,164.5732,119.5,174.5732,123.5,164.5732,119.5,168.5732" style="stroke:#A80036;stroke-width:1.0;"/><line style="stroke:#A80036;stroke-width:1.5;" x1="295.5" x2="283.5" y1="316.8818" y2="316.8818"/><polygon fill="#A80036" points="279.5,363.9243,283.5,373.9243,287.5,363.9243,283.5,367.9243" style="stroke:#A80036;stroke-width:1.5;"/><line style="stroke:#A80036;stroke-width:1.5;" x1="283.5" x2="283.5" y1="316.8818" y2="421.561"/><line style="stroke:#A80036;stroke-width:1.5;" x1="283.5" x2="710" y1="421.561" y2="421.561"/><line style="stroke:#A80036;stroke-width:1.5;" x1="710" x2="710" y1="421.561" y2="436.561"/><polygon fill="#A80036" points="706,426.561,710,436.561,714,426.561,710,430.561" style="stroke:#A80036;stroke-width:1.0;"/><line style="stroke:#A80036;stroke-width:1.5;" x1="368" x2="368" y1="866.2798" y2="886.2798"/><polygon fill="#A80036" points="364,876.2798,368,886.2798,372,876.2798,368,880.2798" style="stroke:#A80036;stroke-width:1.0;"/><line style="stroke:#A80036;stroke-width:1.5;" x1="429.5" x2="485" y1="942.2798" y2="942.2798"/><polygon fill="#A80036" points="481,1041.5532,485,1051.5532,489,1041.5532,485,1045.5532" style="stroke:#A80036;stroke-width:1.5;"/><line style="stroke:#A80036;stroke-width:1.5;" x1="485" x2="485" y1="942.2798" y2="1147.022"/><line style="stroke:#A80036;stroke-width:1.5;" x1="485" x2="380" y1="1147.022" y2="1147.022"/><polygon fill="#A80036" points="390,1143.022,380,1147.022,390,1151.022,386,1147.022" style="stroke:#A80036;stroke-width:1.0;"/><line style="stroke:#A80036;stroke-width:1.5;" x1="368" x2="368" y1="910.2798" y2="930.2798"/><polygon fill="#A80036" points="364,920.2798,368,930.2798,372,920.2798,368,924.2798" style="stroke:#A80036;stroke-width:1.0;"/><line style="stroke:#A80036;stroke-width:1.5;" x1="710" x2="710" y1="460.561" y2="480.561"/><polygon fill="#A80036" points="706,470.561,710,480.561,714,470.561,710,474.561" style="stroke:#A80036;stroke-width:1.0;"/><line style="stroke:#A80036;stroke-width:1.5;" x1="836" x2="836" y1="1056.6509" y2="1081.0532"/><polygon fill="#A80036" points="832,1071.0532,836,1081.0532,840,1071.0532,836,1075.0532" style="stroke:#A80036;stroke-width:1.0;"/><line style="stroke:#A80036;stroke-width:1.5;" x1="869" x2="896" y1="1044.6509" y2="1044.6509"/><polygon fill="#A80036" points="886,1040.6509,896,1044.6509,886,1048.6509,890,1044.6509" style="stroke:#A80036;stroke-width:1.0;"/><line style="stroke:#A80036;stroke-width:1.5;" x1="836" x2="836" y1="1115.022" y2="1122.8208"/><line style="stroke:#A80036;stroke-width:1.5;" x1="836" x2="368" y1="1122.8208" y2="1122.8208"/><line style="stroke:#A80036;stroke-width:1.5;" x1="368" x2="368" y1="1122.8208" y2="1135.022"/><polygon fill="#A80036" points="364,1125.022,368,1135.022,372,1125.022,368,1129.022" style="stroke:#A80036;stroke-width:1.0;"/><line style="stroke:#A80036;stroke-width:1.5;" x1="836" x2="836" y1="1012.6509" y2="1032.6509"/><polygon fill="#A80036" points="832,1022.6509,836,1032.6509,840,1022.6509,836,1026.6509" style="stroke:#A80036;stroke-width:1.0;"/><line style="stroke:#A80036;stroke-width:1.5;" x1="1006.5" x2="1006.5" y1="1226.9595" y2="1246.9595"/><polygon fill="#A80036" points="1002.5,1236.9595,1006.5,1246.9595,1010.5,1236.9595,1006.5,1240.9595" style="stroke:#A80036;stroke-width:1.0;"/><line style="stroke:#A80036;stroke-width:1.5;" x1="368" x2="368" y1="328.8818" y2="345.5923"/><line style="stroke:#A80036;stroke-width:1.5;" x1="368" x2="568" y1="345.5923" y2="345.5923"/><line style="stroke:#A80036;stroke-width:1.5;" x1="568" x2="568" y1="345.5923" y2="360.5923"/><polygon fill="#A80036" points="564,350.5923,568,360.5923,572,350.5923,568,354.5923" style="stroke:#A80036;stroke-width:1.0;"/><line style="stroke:#A80036;stroke-width:1.5;" x1="568" x2="568" y1="394.561" y2="404.561"/><line style="stroke:#A80036;stroke-width:1.5;" x1="568" x2="652.5" y1="404.561" y2="404.561"/><line style="stroke:#A80036;stroke-width:1.5;" x1="652.5" x2="652.5" y1="316.8818" y2="404.561"/><line style="stroke:#A80036;stroke-width:1.5;" x1="652.5" x2="440.5" y1="316.8818" y2="316.8818"/><polygon fill="#A80036" points="450.5,312.8818,440.5,316.8818,450.5,320.8818,446.5,316.8818" style="stroke:#A80036;stroke-width:1.0;"/><line style="stroke:#A80036;stroke-width:1.5;" x1="119.5" x2="119.5" y1="284.8818" y2="289.8818"/><line style="stroke:#A80036;stroke-width:1.5;" x1="119.5" x2="368" y1="289.8818" y2="289.8818"/><line style="stroke:#A80036;stroke-width:1.5;" x1="368" x2="368" y1="289.8818" y2="304.8818"/><polygon fill="#A80036" points="364,294.8818,368,304.8818,372,294.8818,368,298.8818" style="stroke:#A80036;stroke-width:1.0;"/><line style="stroke:#A80036;stroke-width:1.5;" x1="710" x2="710" y1="528.4985" y2="533.4985"/><line style="stroke:#A80036;stroke-width:1.5;" x1="710" x2="119.5" y1="533.4985" y2="533.4985"/><line style="stroke:#A80036;stroke-width:1.5;" x1="119.5" x2="119.5" y1="533.4985" y2="548.4985"/><polygon fill="#A80036" points="115.5,538.4985,119.5,548.4985,123.5,538.4985,119.5,542.4985" style="stroke:#A80036;stroke-width:1.0;"/><line style="stroke:#A80036;stroke-width:1.5;" x1="119.5" x2="119.5" y1="582.4673" y2="587.4673"/><line style="stroke:#A80036;stroke-width:1.5;" x1="119.5" x2="368" y1="587.4673" y2="587.4673"/><line style="stroke:#A80036;stroke-width:1.5;" x1="368" x2="368" y1="587.4673" y2="602.4673"/><polygon fill="#A80036" points="364,592.4673,368,602.4673,372,592.4673,368,596.4673" style="stroke:#A80036;stroke-width:1.0;"/><line style="stroke:#A80036;stroke-width:1.5;" x1="368" x2="368" y1="636.436" y2="641.436"/><line style="stroke:#A80036;stroke-width:1.5;" x1="368" x2="710" y1="641.436" y2="641.436"/><line style="stroke:#A80036;stroke-width:1.5;" x1="710" x2="710" y1="641.436" y2="656.436"/><polygon fill="#A80036" points="706,646.436,710,656.436,714,646.436,710,650.436" style="stroke:#A80036;stroke-width:1.0;"/><line style="stroke:#A80036;stroke-width:1.5;" x1="710" x2="710" y1="704.3735" y2="709.3735"/><line style="stroke:#A80036;stroke-width:1.5;" x1="710" x2="368" y1="709.3735" y2="709.3735"/><line style="stroke:#A80036;stroke-width:1.5;" x1="368" x2="368" y1="709.3735" y2="724.3735"/><polygon fill="#A80036" points="364,714.3735,368,724.3735,372,714.3735,368,718.3735" style="stroke:#A80036;stroke-width:1.0;"/><line style="stroke:#A80036;stroke-width:1.5;" x1="368" x2="368" y1="758.3423" y2="763.3423"/><line style="stroke:#A80036;stroke-width:1.5;" x1="368" x2="119.5" y1="763.3423" y2="763.3423"/><line style="stroke:#A80036;stroke-width:1.5;" x1="119.5" x2="119.5" y1="763.3423" y2="778.3423"/><polygon fill="#A80036" points="115.5,768.3423,119.5,778.3423,123.5,768.3423,119.5,772.3423" style="stroke:#A80036;stroke-width:1.0;"/><line style="stroke:#A80036;stroke-width:1.5;" x1="119.5" x2="119.5" y1="812.311" y2="817.311"/><line style="stroke:#A80036;stroke-width:1.5;" x1="119.5" x2="368" y1="817.311" y2="817.311"/><line style="stroke:#A80036;stroke-width:1.5;" x1="368" x2="368" y1="817.311" y2="832.311"/><polygon fill="#A80036" points="364,822.311,368,832.311,372,822.311,368,826.311" style="stroke:#A80036;stroke-width:1.0;"/><line style="stroke:#A80036;stroke-width:1.5;" x1="422.5" x2="478" y1="898.2798" y2="898.2798"/><polygon fill="#A80036" points="474,683.4204,478,673.4204,482,683.4204,478,679.4204" style="stroke:#A80036;stroke-width:1.5;"/><line style="stroke:#A80036;stroke-width:1.5;" x1="478" x2="478" y1="448.561" y2="898.2798"/><line style="stroke:#A80036;stroke-width:1.5;" x1="478" x2="698" y1="448.561" y2="448.561"/><polygon fill="#A80036" points="688,444.561,698,448.561,688,452.561,692,448.561" style="stroke:#A80036;stroke-width:1.0;"/><line style="stroke:#A80036;stroke-width:1.5;" x1="368" x2="368" y1="954.2798" y2="966.481"/><line style="stroke:#A80036;stroke-width:1.5;" x1="368" x2="836" y1="966.481" y2="966.481"/><line style="stroke:#A80036;stroke-width:1.5;" x1="836" x2="836" y1="966.481" y2="978.6821"/><polygon fill="#A80036" points="832,968.6821,836,978.6821,840,968.6821,836,972.6821" style="stroke:#A80036;stroke-width:1.0;"/><line style="stroke:#A80036;stroke-width:1.5;" x1="368" x2="368" y1="1159.022" y2="1164.022"/><line style="stroke:#A80036;stroke-width:1.5;" x1="368" x2="1006.5" y1="1164.022" y2="1164.022"/><line style="stroke:#A80036;stroke-width:1.5;" x1="1006.5" x2="1006.5" y1="1164.022" y2="1179.022"/><polygon fill="#A80036" points="1002.5,1169.022,1006.5,1179.022,1010.5,1169.022,1006.5,1173.022" style="stroke:#A80036;stroke-width:1.0;"/><text fill="#000000" font-family="sans-serif" font-size="18" lengthAdjust="spacing" textLength="73" x="103" y="29.4531">Proposer</text><text fill="#000000" font-family="sans-serif" font-size="18" lengthAdjust="spacing" textLength="87" x="340.5" y="29.4531">Moderator</text><text fill="#000000" font-family="sans-serif" font-size="18" lengthAdjust="spacing" textLength="102" x="516.5" y="29.4531">Conventions</text><text fill="#000000" font-family="sans-serif" font-size="18" lengthAdjust="spacing" textLength="90" x="516.5" y="50.4063">Committee</text><text fill="#000000" font-family="sans-serif" font-size="18" lengthAdjust="spacing" textLength="41" x="516.5" y="71.3594">chair</text><text fill="#000000" font-family="sans-serif" font-size="18" lengthAdjust="spacing" textLength="95" x="664.5" y="29.4531">Community</text><text fill="#000000" font-family="sans-serif" font-size="18" lengthAdjust="spacing" textLength="102" x="804.5" y="29.4531">Conventions</text><text fill="#000000" font-family="sans-serif" font-size="18" lengthAdjust="spacing" textLength="90" x="804.5" y="50.4063">Committee</text><text fill="#000000" font-family="sans-serif" font-size="18" lengthAdjust="spacing" textLength="98" x="933" y="29.4531">Information</text><text fill="#000000" font-family="sans-serif" font-size="18" lengthAdjust="spacing" textLength="146" x="933" y="50.4063">management and</text><text fill="#000000" font-family="sans-serif" font-size="18" lengthAdjust="spacing" textLength="111" x="933" y="71.3594">support team</text><!--MD5=[714c570055036e495bd08984aba5b3d8]
@startuml
|Proposer|
start

:Discuss idea on "Discuss" list;
if (Change to conventions needed?) then (no)
  stop
else (yes)
  :Create issue using
  appropriate template
  in Conventions repository;

|Moderator|
while (A moderator volunteers?) is (no)
|Conventions \nCommittee \nchair|
  :Ask for volunteers;
endwhile

repeat
|Community|
:Discuss issue and
proposed text;

|Proposer|
:Revise proposal as needed;

|Moderator|
:Facilitate discussion;

|Community|
:3 weeks pass without \nchanges or objections;

|Moderator|
:Summarise discussion;

|Proposer|
:Provide test netCDF file;

|Moderator|
:Allow 3 weeks for new objections;
repeat while (Objections raised) is (yes)

if (Consensus reached?) then (Almost);
  |Conventions \nCommittee|
  :Vote;
  if (Rejected) then (yes)
    stop
  else (no)
    :Approved;
  endif
endif
|Information \nmanagement and \nsupport team|
:Merge into next \nversion of Conventions;

stop
@enduml

PlantUML version 1.2021.10(Mon Aug 30 13:43:48 GMT 2021)
(GPL source distribution)
Java Runtime: OpenJDK Runtime Environment
JVM: OpenJDK 64-Bit Server VM
Default Encoding: UTF-8
Language: en
Country: US
--></g></svg>