<?xml version="1.0" encoding="UTF-8" standalone="no"?><svg xmlns="http://www.w3.org/2000/svg" xmlns:xlink="http://www.w3.org/1999/xlink" contentScriptType="application/ecmascript" contentStyleType="text/css" height="1305px" preserveAspectRatio="none" style="width:1082px;height:1305px;" version="1.1" viewBox="0 0 1082 1305" width="1082px" zoomAndPan="magnify"><defs><filter height="300%" id="f1tfear807xr43" width="300%" x="-1" y="-1"><feGaussianBlur result="blurOut" stdDeviation="2.0"/><feColorMatrix in="blurOut" result="blurOut2" type="matrix" values="0 0 0 0 0 0 0 0 0 0 0 0 0 0 0 0 0 0 .4 0"/><feOffset dx="4.0" dy="4.0" in="blurOut2" result="blurOut3"/><feBlend in="SourceGraphic" in2="blurOut3" mode="normal"/></filter></defs><g><ellipse cx="119.5" cy="90.6045" fill="#000000" filter="url(#f1tfear807xr43)" rx="10" ry="10" style="stroke: none; stroke-width: 1.0;"/><rect fill="#FEFECE" filter="url(#f1tfear807xr43)" height="33.9688" rx="12.5" ry="12.5" style="stroke: #A80036; stroke-width: 1.5;" width="171" x="34" y="120.6045"/><text fill="#000000" font-family="sans-serif" font-size="12" lengthAdjust="spacingAndGlyphs" textLength="151" x="44" y="141.7432">Discuss idea on "Discuss" list</text><rect fill="#FEFECE" filter="url(#f1tfear807xr43)" height="61.9063" rx="12.5" ry="12.5" style="stroke: #A80036; stroke-width: 1.5;" width="157" x="41" y="222.9756"/><text fill="#000000" font-family="sans-serif" font-size="12" lengthAdjust="spacingAndGlyphs" textLength="94" x="51" y="244.1143">Create issue using</text><text fill="#000000" font-family="sans-serif" font-size="12" lengthAdjust="spacingAndGlyphs" textLength="113" x="51" y="258.083">appropriate template</text><text fill="#000000" font-family="sans-serif" font-size="12" lengthAdjust="spacingAndGlyphs" textLength="137" x="51" y="272.0518">in Conventions repository</text><rect fill="#FEFECE" filter="url(#f1tfear807xr43)" height="33.9688" rx="12.5" ry="12.5" style="stroke: #A80036; stroke-width: 1.5;" width="159" x="40" y="548.4985"/><text fill="#000000" font-family="sans-serif" font-size="12" lengthAdjust="spacingAndGlyphs" textLength="139" x="50" y="569.6372">Revise proposal as needed</text><rect fill="#FEFECE" filter="url(#f1tfear807xr43)" height="33.9688" rx="12.5" ry="12.5" style="stroke: #A80036; stroke-width: 1.5;" width="143" x="48" y="778.3423"/><text fill="#000000" font-family="sans-serif" font-size="12" lengthAdjust="spacingAndGlyphs" textLength="123" x="58" y="799.481">Provide test netCDF file</text><polygon fill="#FEFECE" filter="url(#f1tfear807xr43)" points="42,174.5732,197,174.5732,209,186.5732,197,198.5732,42,198.5732,30,186.5732,42,174.5732" style="stroke: #A80036; stroke-width: 1.5;"/><text fill="#000000" font-family="sans-serif" font-size="11" lengthAdjust="spacingAndGlyphs" textLength="16" x="123.5" y="208.7837">yes</text><text fill="#000000" font-family="sans-serif" font-size="11" lengthAdjust="spacingAndGlyphs" textLength="155" x="42" y="190.3813">Change to conventions needed?</text><text fill="#000000" font-family="sans-serif" font-size="11" lengthAdjust="spacingAndGlyphs" textLength="12" x="209" y="183.979">no</text><ellipse cx="243" cy="186.5732" fill="#FFFFFF" filter="url(#f1tfear807xr43)" rx="11" ry="11" style="stroke: #000000; stroke-width: 1.0;"/><ellipse cx="243" cy="186.5732" fill="#000000" rx="6" ry="6" style="stroke: #7F7F7F; stroke-width: 1.0;"/><line style="stroke: #000000; stroke-width: 2.0;" x1="15" x2="15" y1="12.7451" y2="1293.3618"/><polygon fill="#FEFECE" filter="url(#f1tfear807xr43)" points="301,304.8818,422,304.8818,434,316.8818,422,328.8818,301,328.8818,289,316.8818,301,304.8818" style="stroke: #A80036; stroke-width: 1.5;"/><text fill="#000000" font-family="sans-serif" font-size="11" lengthAdjust="spacingAndGlyphs" textLength="12" x="365.5" y="339.0923">no</text><text fill="#000000" font-family="sans-serif" font-size="11" lengthAdjust="spacingAndGlyphs" textLength="121" x="301" y="320.6899">A moderator volunteers?</text><rect fill="#FEFECE" filter="url(#f1tfear807xr43)" height="33.9688" rx="12.5" ry="12.5" style="stroke: #A80036; stroke-width: 1.5;" width="125" x="299" y="602.4673"/><text fill="#000000" font-family="sans-serif" font-size="12" lengthAdjust="spacingAndGlyphs" textLength="105" x="309" y="623.606">Facilitate discussion</text><rect fill="#FEFECE" filter="url(#f1tfear807xr43)" height="33.9688" rx="12.5" ry="12.5" style="stroke: #A80036; stroke-width: 1.5;" width="138" x="292.5" y="724.3735"/><text fill="#000000" font-family="sans-serif" font-size="12" lengthAdjust="spacingAndGlyphs" textLength="118" x="302.5" y="745.5122">Summarise discussion</text><rect fill="#FEFECE" filter="url(#f1tfear807xr43)" height="33.9688" rx="12.5" ry="12.5" style="stroke: #A80036; stroke-width: 1.5;" width="196" x="263.5" y="832.311"/><text fill="#000000" font-family="sans-serif" font-size="12" lengthAdjust="spacingAndGlyphs" textLength="176" x="273.5" y="853.4497">Allow 3 weeks for new objections</text><polygon fill="#FEFECE" filter="url(#f1tfear807xr43)" points="319,886.2798,404,886.2798,416,898.2798,404,910.2798,319,910.2798,307,898.2798,319,886.2798" style="stroke: #A80036; stroke-width: 1.5;"/><text fill="#000000" font-family="sans-serif" font-size="11" lengthAdjust="spacingAndGlyphs" textLength="85" x="319" y="902.0879">Objections raised</text><text fill="#000000" font-family="sans-serif" font-size="11" lengthAdjust="spacingAndGlyphs" textLength="16" x="416" y="895.6855">yes</text><polygon fill="#FEFECE" filter="url(#f1tfear807xr43)" points="312,930.2798,411,930.2798,423,942.2798,411,954.2798,312,954.2798,300,942.2798,312,930.2798" style="stroke: #A80036; stroke-width: 1.5;"/><text fill="#000000" font-family="sans-serif" font-size="11" lengthAdjust="spacingAndGlyphs" textLength="35" x="365.5" y="964.4902">Almost</text><text fill="#000000" font-family="sans-serif" font-size="11" lengthAdjust="spacingAndGlyphs" textLength="99" x="312" y="946.0879">Consensus reached?</text><polygon fill="#FEFECE" filter="url(#f1tfear807xr43)" points="361.5,1135.022,373.5,1147.022,361.5,1159.022,349.5,1147.022,361.5,1135.022" style="stroke: #A80036; stroke-width: 1.5;"/><line style="stroke: #000000; stroke-width: 2.0;" x1="258" x2="258" y1="12.7451" y2="1293.3618"/><rect fill="#FEFECE" filter="url(#f1tfear807xr43)" height="33.9688" rx="12.5" ry="12.5" style="stroke: #A80036; stroke-width: 1.5;" width="116" x="502.5" y="360.5923"/><text fill="#000000" font-family="sans-serif" font-size="12" lengthAdjust="spacingAndGlyphs" textLength="96" x="512.5" y="381.731">Ask for volunteers</text><line style="stroke: #000000; stroke-width: 2.0;" x1="497.5" x2="497.5" y1="12.7451" y2="1293.3618"/><rect fill="#FEFECE" filter="url(#f1tfear807xr43)" height="47.9375" rx="12.5" ry="12.5" style="stroke: #A80036; stroke-width: 1.5;" width="111" x="640" y="480.561"/><text fill="#000000" font-family="sans-serif" font-size="12" lengthAdjust="spacingAndGlyphs" textLength="91" x="650" y="501.6997">Discuss issue and</text><text fill="#000000" font-family="sans-serif" font-size="12" lengthAdjust="spacingAndGlyphs" textLength="74" x="650" y="515.6685">proposed text</text><rect fill="#FEFECE" filter="url(#f1tfear807xr43)" height="47.9375" rx="12.5" ry="12.5" style="stroke: #A80036; stroke-width: 1.5;" width="136" x="627.5" y="656.436"/><text fill="#000000" font-family="sans-serif" font-size="12" lengthAdjust="spacingAndGlyphs" textLength="112" x="637.5" y="677.5747">3 weeks pass without</text><text fill="#000000" font-family="sans-serif" font-size="12" lengthAdjust="spacingAndGlyphs" textLength="116" x="637.5" y="691.5435">changes or objections</text><polygon fill="#FEFECE" filter="url(#f1tfear807xr43)" points="695.5,436.561,707.5,448.561,695.5,460.561,683.5,448.561,695.5,436.561" style="stroke: #A80036; stroke-width: 1.5;"/><line style="stroke: #000000; stroke-width: 2.0;" x1="622.5" x2="622.5" y1="12.7451" y2="1293.3618"/><rect fill="#FEFECE" filter="url(#f1tfear807xr43)" height="33.9688" rx="12.5" ry="12.5" style="stroke: #A80036; stroke-width: 1.5;" width="44" x="793.5" y="978.6821"/><text fill="#000000" font-family="sans-serif" font-size="12" lengthAdjust="spacingAndGlyphs" textLength="24" x="803.5" y="999.8208">Vote</text><rect fill="#FEFECE" filter="url(#f1tfear807xr43)" height="33.9688" rx="12.5" ry="12.5" style="stroke: #A80036; stroke-width: 1.5;" width="72" x="779.5" y="1081.0532"/><text fill="#000000" font-family="sans-serif" font-size="12" lengthAdjust="spacingAndGlyphs" textLength="52" x="789.5" y="1102.1919">Approved</text><polygon fill="#FEFECE" filter="url(#f1tfear807xr43)" points="794.5,1032.6509,836.5,1032.6509,848.5,1044.6509,836.5,1056.6509,794.5,1056.6509,782.5,1044.6509,794.5,1032.6509" style="stroke: #A80036; stroke-width: 1.5;"/><text fill="#000000" font-family="sans-serif" font-size="11" lengthAdjust="spacingAndGlyphs" textLength="12" x="819.5" y="1066.8613">no</text><text fill="#000000" font-family="sans-serif" font-size="11" lengthAdjust="spacingAndGlyphs" textLength="42" x="794.5" y="1048.459">Rejected</text><text fill="#000000" font-family="sans-serif" font-size="11" lengthAdjust="spacingAndGlyphs" textLength="16" x="848.5" y="1042.0566">yes</text><ellipse cx="886.5" cy="1044.6509" fill="#FFFFFF" filter="url(#f1tfear807xr43)" rx="11" ry="11" style="stroke: #000000; stroke-width: 1.0;"/><ellipse cx="886.5" cy="1044.6509" fill="#000000" rx="6" ry="6" style="stroke: #7F7F7F; stroke-width: 1.0;"/><line style="stroke: #000000; stroke-width: 2.0;" x1="767.5" x2="767.5" y1="12.7451" y2="1293.3618"/><rect fill="#FEFECE" filter="url(#f1tfear807xr43)" height="47.9375" rx="12.5" ry="12.5" style="stroke: #A80036; stroke-width: 1.5;" width="142" x="911.5" y="1179.022"/><text fill="#000000" font-family="sans-serif" font-size="12" lengthAdjust="spacingAndGlyphs" textLength="83" x="921.5" y="1200.1606">Merge into next</text><text fill="#000000" font-family="sans-serif" font-size="12" lengthAdjust="spacingAndGlyphs" textLength="122" x="921.5" y="1214.1294">version of Conventions</text><ellipse cx="982.5" cy="1257.9595" fill="#FFFFFF" filter="url(#f1tfear807xr43)" rx="11" ry="11" style="stroke: #000000; stroke-width: 1.0;"/><ellipse cx="982.5" cy="1257.9595" fill="#000000" rx="6" ry="6" style="stroke: #7F7F7F; stroke-width: 1.0;"/><line style="stroke: #000000; stroke-width: 2.0;" x1="901.5" x2="901.5" y1="12.7451" y2="1293.3618"/><line style="stroke: #000000; stroke-width: 2.0;" x1="1062.5" x2="1062.5" y1="12.7451" y2="1293.3618"/><polygon fill="#A80036" points="641,363.1743,645,353.1743,649,363.1743,645,359.1743" style="stroke: #A80036; stroke-width: 1.0;"/><line style="stroke: #A80036; stroke-width: 1.5;" x1="119.5" x2="119.5" y1="100.6045" y2="120.6045"/><polygon fill="#A80036" points="115.5,110.6045,119.5,120.6045,123.5,110.6045,119.5,114.6045" style="stroke: #A80036; stroke-width: 1.0;"/><line style="stroke: #A80036; stroke-width: 1.5;" x1="119.5" x2="119.5" y1="198.5732" y2="222.9756"/><polygon fill="#A80036" points="115.5,212.9756,119.5,222.9756,123.5,212.9756,119.5,216.9756" style="stroke: #A80036; stroke-width: 1.0;"/><line style="stroke: #A80036; stroke-width: 1.5;" x1="209" x2="232" y1="186.5732" y2="186.5732"/><polygon fill="#A80036" points="222,182.5732,232,186.5732,222,190.5732,226,186.5732" style="stroke: #A80036; stroke-width: 1.0;"/><line style="stroke: #A80036; stroke-width: 1.5;" x1="119.5" x2="119.5" y1="154.5732" y2="174.5732"/><polygon fill="#A80036" points="115.5,164.5732,119.5,174.5732,123.5,164.5732,119.5,168.5732" style="stroke: #A80036; stroke-width: 1.0;"/><line style="stroke: #A80036; stroke-width: 1.5;" x1="289" x2="277" y1="316.8818" y2="316.8818"/><polygon fill="#A80036" points="273,363.9243,277,373.9243,281,363.9243,277,367.9243" style="stroke: #A80036; stroke-width: 1.5;"/><line style="stroke: #A80036; stroke-width: 1.5;" x1="277" x2="277" y1="316.8818" y2="421.561"/><line style="stroke: #A80036; stroke-width: 1.5;" x1="277" x2="695.5" y1="421.561" y2="421.561"/><line style="stroke: #A80036; stroke-width: 1.5;" x1="695.5" x2="695.5" y1="421.561" y2="436.561"/><polygon fill="#A80036" points="691.5,426.561,695.5,436.561,699.5,426.561,695.5,430.561" style="stroke: #A80036; stroke-width: 1.0;"/><line style="stroke: #A80036; stroke-width: 1.5;" x1="416" x2="471.5" y1="898.2798" y2="898.2798"/><polygon fill="#A80036" points="467.5,683.4204,471.5,673.4204,475.5,683.4204,471.5,679.4204" style="stroke: #A80036; stroke-width: 1.5;"/><line style="stroke: #A80036; stroke-width: 1.5;" x1="471.5" x2="471.5" y1="448.561" y2="898.2798"/><line style="stroke: #A80036; stroke-width: 1.5;" x1="471.5" x2="683.5" y1="448.561" y2="448.561"/><polygon fill="#A80036" points="673.5,444.561,683.5,448.561,673.5,452.561,677.5,448.561" style="stroke: #A80036; stroke-width: 1.0;"/><line style="stroke: #A80036; stroke-width: 1.5;" x1="361.5" x2="361.5" y1="866.2798" y2="886.2798"/><polygon fill="#A80036" points="357.5,876.2798,361.5,886.2798,365.5,876.2798,361.5,880.2798" style="stroke: #A80036; stroke-width: 1.0;"/><line style="stroke: #A80036; stroke-width: 1.5;" x1="423" x2="478.5" y1="942.2798" y2="942.2798"/><polygon fill="#A80036" points="474.5,1041.5532,478.5,1051.5532,482.5,1041.5532,478.5,1045.5532" style="stroke: #A80036; stroke-width: 1.5;"/><line style="stroke: #A80036; stroke-width: 1.5;" x1="478.5" x2="478.5" y1="942.2798" y2="1147.022"/><line style="stroke: #A80036; stroke-width: 1.5;" x1="478.5" x2="373.5" y1="1147.022" y2="1147.022"/><polygon fill="#A80036" points="383.5,1143.022,373.5,1147.022,383.5,1151.022,379.5,1147.022" style="stroke: #A80036; stroke-width: 1.0;"/><line style="stroke: #A80036; stroke-width: 1.5;" x1="361.5" x2="361.5" y1="910.2798" y2="930.2798"/><polygon fill="#A80036" points="357.5,920.2798,361.5,930.2798,365.5,920.2798,361.5,924.2798" style="stroke: #A80036; stroke-width: 1.0;"/><line style="stroke: #A80036; stroke-width: 1.5;" x1="695.5" x2="695.5" y1="460.561" y2="480.561"/><polygon fill="#A80036" points="691.5,470.561,695.5,480.561,699.5,470.561,695.5,474.561" style="stroke: #A80036; stroke-width: 1.0;"/><line style="stroke: #A80036; stroke-width: 1.5;" x1="815.5" x2="815.5" y1="1056.6509" y2="1081.0532"/><polygon fill="#A80036" points="811.5,1071.0532,815.5,1081.0532,819.5,1071.0532,815.5,1075.0532" style="stroke: #A80036; stroke-width: 1.0;"/><line style="stroke: #A80036; stroke-width: 1.5;" x1="848.5" x2="875.5" y1="1044.6509" y2="1044.6509"/><polygon fill="#A80036" points="865.5,1040.6509,875.5,1044.6509,865.5,1048.6509,869.5,1044.6509" style="stroke: #A80036; stroke-width: 1.0;"/><line style="stroke: #A80036; stroke-width: 1.5;" x1="815.5" x2="815.5" y1="1115.022" y2="1122.8208"/><line style="stroke: #A80036; stroke-width: 1.5;" x1="815.5" x2="361.5" y1="1122.8208" y2="1122.8208"/><line style="stroke: #A80036; stroke-width: 1.5;" x1="361.5" x2="361.5" y1="1122.8208" y2="1135.022"/><polygon fill="#A80036" points="357.5,1125.022,361.5,1135.022,365.5,1125.022,361.5,1129.022" style="stroke: #A80036; stroke-width: 1.0;"/><line style="stroke: #A80036; stroke-width: 1.5;" x1="815.5" x2="815.5" y1="1012.6509" y2="1032.6509"/><polygon fill="#A80036" points="811.5,1022.6509,815.5,1032.6509,819.5,1022.6509,815.5,1026.6509" style="stroke: #A80036; stroke-width: 1.0;"/><line style="stroke: #A80036; stroke-width: 1.5;" x1="982.5" x2="982.5" y1="1226.9595" y2="1246.9595"/><polygon fill="#A80036" points="978.5,1236.9595,982.5,1246.9595,986.5,1236.9595,982.5,1240.9595" style="stroke: #A80036; stroke-width: 1.0;"/><line style="stroke: #A80036; stroke-width: 1.5;" x1="361.5" x2="361.5" y1="328.8818" y2="345.5923"/><line style="stroke: #A80036; stroke-width: 1.5;" x1="361.5" x2="560.5" y1="345.5923" y2="345.5923"/><line style="stroke: #A80036; stroke-width: 1.5;" x1="560.5" x2="560.5" y1="345.5923" y2="360.5923"/><polygon fill="#A80036" points="556.5,350.5923,560.5,360.5923,564.5,350.5923,560.5,354.5923" style="stroke: #A80036; stroke-width: 1.0;"/><line style="stroke: #A80036; stroke-width: 1.5;" x1="560.5" x2="560.5" y1="394.561" y2="404.561"/><line style="stroke: #A80036; stroke-width: 1.5;" x1="560.5" x2="645" y1="404.561" y2="404.561"/><line style="stroke: #A80036; stroke-width: 1.5;" x1="645" x2="645" y1="316.8818" y2="404.561"/><line style="stroke: #A80036; stroke-width: 1.5;" x1="645" x2="434" y1="316.8818" y2="316.8818"/><polygon fill="#A80036" points="444,312.8818,434,316.8818,444,320.8818,440,316.8818" style="stroke: #A80036; stroke-width: 1.0;"/><line style="stroke: #A80036; stroke-width: 1.5;" x1="119.5" x2="119.5" y1="284.8818" y2="289.8818"/><line style="stroke: #A80036; stroke-width: 1.5;" x1="119.5" x2="361.5" y1="289.8818" y2="289.8818"/><line style="stroke: #A80036; stroke-width: 1.5;" x1="361.5" x2="361.5" y1="289.8818" y2="304.8818"/><polygon fill="#A80036" points="357.5,294.8818,361.5,304.8818,365.5,294.8818,361.5,298.8818" style="stroke: #A80036; stroke-width: 1.0;"/><line style="stroke: #A80036; stroke-width: 1.5;" x1="695.5" x2="695.5" y1="528.4985" y2="533.4985"/><line style="stroke: #A80036; stroke-width: 1.5;" x1="695.5" x2="119.5" y1="533.4985" y2="533.4985"/><line style="stroke: #A80036; stroke-width: 1.5;" x1="119.5" x2="119.5" y1="533.4985" y2="548.4985"/><polygon fill="#A80036" points="115.5,538.4985,119.5,548.4985,123.5,538.4985,119.5,542.4985" style="stroke: #A80036; stroke-width: 1.0;"/><line style="stroke: #A80036; stroke-width: 1.5;" x1="119.5" x2="119.5" y1="582.4673" y2="587.4673"/><line style="stroke: #A80036; stroke-width: 1.5;" x1="119.5" x2="361.5" y1="587.4673" y2="587.4673"/><line style="stroke: #A80036; stroke-width: 1.5;" x1="361.5" x2="361.5" y1="587.4673" y2="602.4673"/><polygon fill="#A80036" points="357.5,592.4673,361.5,602.4673,365.5,592.4673,361.5,596.4673" style="stroke: #A80036; stroke-width: 1.0;"/><line style="stroke: #A80036; stroke-width: 1.5;" x1="361.5" x2="361.5" y1="636.436" y2="641.436"/><line style="stroke: #A80036; stroke-width: 1.5;" x1="361.5" x2="695.5" y1="641.436" y2="641.436"/><line style="stroke: #A80036; stroke-width: 1.5;" x1="695.5" x2="695.5" y1="641.436" y2="656.436"/><polygon fill="#A80036" points="691.5,646.436,695.5,656.436,699.5,646.436,695.5,650.436" style="stroke: #A80036; stroke-width: 1.0;"/><line style="stroke: #A80036; stroke-width: 1.5;" x1="695.5" x2="695.5" y1="704.3735" y2="709.3735"/><line style="stroke: #A80036; stroke-width: 1.5;" x1="695.5" x2="361.5" y1="709.3735" y2="709.3735"/><line style="stroke: #A80036; stroke-width: 1.5;" x1="361.5" x2="361.5" y1="709.3735" y2="724.3735"/><polygon fill="#A80036" points="357.5,714.3735,361.5,724.3735,365.5,714.3735,361.5,718.3735" style="stroke: #A80036; stroke-width: 1.0;"/><line style="stroke: #A80036; stroke-width: 1.5;" x1="361.5" x2="361.5" y1="758.3423" y2="763.3423"/><line style="stroke: #A80036; stroke-width: 1.5;" x1="361.5" x2="119.5" y1="763.3423" y2="763.3423"/><line style="stroke: #A80036; stroke-width: 1.5;" x1="119.5" x2="119.5" y1="763.3423" y2="778.3423"/><polygon fill="#A80036" points="115.5,768.3423,119.5,778.3423,123.5,768.3423,119.5,772.3423" style="stroke: #A80036; stroke-width: 1.0;"/><line style="stroke: #A80036; stroke-width: 1.5;" x1="119.5" x2="119.5" y1="812.311" y2="817.311"/><line style="stroke: #A80036; stroke-width: 1.5;" x1="119.5" x2="361.5" y1="817.311" y2="817.311"/><line style="stroke: #A80036; stroke-width: 1.5;" x1="361.5" x2="361.5" y1="817.311" y2="832.311"/><polygon fill="#A80036" points="357.5,822.311,361.5,832.311,365.5,822.311,361.5,826.311" style="stroke: #A80036; stroke-width: 1.0;"/><line style="stroke: #A80036; stroke-width: 1.5;" x1="361.5" x2="361.5" y1="954.2798" y2="966.481"/><line style="stroke: #A80036; stroke-width: 1.5;" x1="361.5" x2="815.5" y1="966.481" y2="966.481"/><line style="stroke: #A80036; stroke-width: 1.5;" x1="815.5" x2="815.5" y1="966.481" y2="978.6821"/><polygon fill="#A80036" points="811.5,968.6821,815.5,978.6821,819.5,968.6821,815.5,972.6821" style="stroke: #A80036; stroke-width: 1.0;"/><line style="stroke: #A80036; stroke-width: 1.5;" x1="361.5" x2="361.5" y1="1159.022" y2="1164.022"/><line style="stroke: #A80036; stroke-width: 1.5;" x1="361.5" x2="982.5" y1="1164.022" y2="1164.022"/><line style="stroke: #A80036; stroke-width: 1.5;" x1="982.5" x2="982.5" y1="1164.022" y2="1179.022"/><polygon fill="#A80036" points="978.5,1169.022,982.5,1179.022,986.5,1169.022,982.5,1173.022" style="stroke: #A80036; stroke-width: 1.0;"/><text fill="#000000" font-family="sans-serif" font-size="18" lengthAdjust="spacingAndGlyphs" textLength="73" x="100" y="29.4531">Proposer</text><text fill="#000000" font-family="sans-serif" font-size="18" lengthAdjust="spacingAndGlyphs" textLength="87" x="334.25" y="29.4531">Moderator</text><text fill="#000000" font-family="sans-serif" font-size="18" lengthAdjust="spacingAndGlyphs" textLength="102" x="506.5" y="29.4531">Conventions</text><text fill="#000000" font-family="sans-serif" font-size="18" lengthAdjust="spacingAndGlyphs" textLength="90" x="506.5" y="50.4063">Committee</text><text fill="#000000" font-family="sans-serif" font-size="18" lengthAdjust="spacingAndGlyphs" textLength="41" x="506.5" y="71.3594">chair</text><text fill="#000000" font-family="sans-serif" font-size="18" lengthAdjust="spacingAndGlyphs" textLength="95" x="647.5" y="29.4531">Community</text><text fill="#000000" font-family="sans-serif" font-size="18" lengthAdjust="spacingAndGlyphs" textLength="102" x="781" y="29.4531">Conventions</text><text fill="#000000" font-family="sans-serif" font-size="18" lengthAdjust="spacingAndGlyphs" textLength="90" x="781" y="50.4063">Committee</text><text fill="#000000" font-family="sans-serif" font-size="18" lengthAdjust="spacingAndGlyphs" textLength="98" x="906.5" y="29.4531">Information</text><text fill="#000000" font-family="sans-serif" font-size="18" lengthAdjust="spacingAndGlyphs" textLength="146" x="906.5" y="50.4063">management and</text><text fill="#000000" font-family="sans-serif" font-size="18" lengthAdjust="spacingAndGlyphs" textLength="111" x="906.5" y="71.3594">support team</text><!--MD5=[c1b572ef10a2c6e1184dc9486496f7cc]
@startuml
|Proposer|
start

:Discuss idea on "Discuss" list;
if (Change to conventions needed?) then (no)
  stop
else (yes)
  :Create issue using
  appropriate template
  in Conventions repository;

|Moderator|
while (A moderator volunteers?) is (no)
|Conventions \nCommittee \nchair|
  :Ask for volunteers;
endwhile

repeat
|Community|
:Discuss issue and
proposed text;

|Proposer|
:Revise proposal as needed;

|Moderator|
:Facilitate discussion;

|Community|
:3 weeks pass without \nchanges or objections;

|Moderator|
:Summarise discussion;

|Proposer|
:Provide test netCDF file;

|Moderator|
:Allow 3 weeks for new objections;
repeat while (Objections raised) is (yes)

if (Consensus reached?) then (Almost);
  |Conventions \nCommittee|
  :Vote;
  if (Rejected) then (yes)
    stop
  else (no)
    :Approved;
  endif
endif
|Information \nmanagement and \nsupport team|
:Merge into next \nversion of Conventions;

stop
@enduml

PlantUML version 1.2020.10(Sun May 17 09:35:57 GMT 2020)
(GPL source distribution)
Java Runtime: OpenJDK Runtime Environment
JVM: OpenJDK 64-Bit Server VM
Java Version: 11.0.5+10-alpine-r0
Operating System: Linux
Default Encoding: UTF-8
Language: en
Country: US
--></g></svg>